<?xml version="1.0" standalone="no"?>
<!DOCTYPE svg PUBLIC "-//W3C//DTD SVG 1.1//EN" "http://www.w3.org/Graphics/SVG/1.1/DTD/svg11.dtd" >
<svg xmlns="http://www.w3.org/2000/svg">
<metadata>
<json>
<![CDATA[
{
	"fontFamily": "NaiveBlueSymbols",
	"majorVersion": 1,
	"minorVersion": 0,
	"copyright": "NaiveBlue",
	"designer": "LiuChongliang",
	"description": "the Legend of Tiny Photos\nFont generated by IcoMoon.",
	"designerURL": "http://www.liuchongliang.com",
	"fontURL": "http://www.naiveblue.com",
	"version": "Version 1.0",
	"fontId": "NaiveBlueSymbols",
	"psName": "NaiveBlueSymbols",
	"subFamily": "Regular",
	"fullName": "NaiveBlueSymbols"
}
]]>
</json>
</metadata>
<defs>
<font id="NaiveBlueSymbols" horiz-adv-x="1024">
<font-face units-per-em="1024" ascent="890.88" descent="-133.12" />
<missing-glyph horiz-adv-x="1024" />
<glyph unicode="&#x20;" horiz-adv-x="0" d="" />
<glyph unicode="&#xe900;" glyph-name="time15" data-tags="NaiveBlueSymbol_复制-94" d="M874.291 746.086c-96.768 96.666-225.382 149.914-362.189 149.914s-265.421-53.248-362.086-149.914c-96.768-96.768-150.016-225.28-150.016-362.086s53.248-265.318 149.914-362.189c96.666-96.563 225.382-149.811 362.086-149.811 136.806 0 265.421 53.248 362.291 150.016 199.578 199.578 199.578 524.39 0 724.070zM827.085 69.12c-84.173-84.070-196.096-130.458-315.085-130.458-118.886 0-230.81 46.387-314.88 130.355-84.070 84.070-130.355 195.994-130.355 314.982s46.285 230.81 130.458 314.88c84.070 84.070 195.891 130.355 314.88 130.355s230.81-46.285 314.982-130.355c173.568-173.67 173.568-456.090 0-629.76zM747.008 377.344h-195.584v272.384c0 22.63-18.33 40.96-40.96 40.96s-40.96-18.33-40.96-40.96v-313.344c0-22.63 18.33-40.96 40.96-40.96h236.544c22.63 0 40.96 18.33 40.96 40.96s-18.33 40.96-40.96 40.96z" />
<glyph unicode="&#xe902;" glyph-name="minus" data-tags="NaiveBlueSymbol-98" d="M124.211 457.011c-40.346 0-73.011-32.666-73.011-73.011s32.768-73.114 73.011-73.011l775.475 0.102c20.173 0 38.502 8.192 51.712 21.402 13.21 13.107 21.402 31.334 21.402 51.507 0 40.346-32.768 73.011-73.011 73.011h-775.578z" />
<glyph unicode="&#xe903;" glyph-name="plus" data-tags="NaiveBlueSymbol-99" d="M585.114 457.011v314.675c0 40.346-32.768 73.114-73.114 73.114s-73.011-32.666-73.011-73.011v-314.675h-314.675c-40.448-0.102-73.114-32.768-73.114-73.114s32.768-73.114 73.011-73.011h314.675v-314.675c0-40.346 32.666-73.011 73.011-73.011 20.173 0 38.502 8.192 51.712 21.402s21.299 31.437 21.402 51.712v314.675h314.675c20.173 0 38.502 8.192 51.712 21.402 13.21 13.107 21.402 31.334 21.402 51.507 0 40.346-32.768 73.011-73.011 73.011h-314.675z" />
<glyph unicode="&#xe913;" glyph-name="number1" data-tags="NaiveBlueSymbolsvg-01" d="M512.307 832.819c-247.808 0-448.819-200.909-448.819-448.819s201.011-448.819 448.819-448.819 448.922 200.909 448.922 448.819-201.011 448.819-448.922 448.819zM569.344 88.064h-88.064v494.592h-4.301l-137.011-97.382v92.16l141.21 102.502h88.166v-591.872z" />
<glyph unicode="&#xe914;" glyph-name="number2" data-tags="NaiveBlueSymbolsvg-02" d="M512 832.819c-247.91 0-448.819-200.909-448.819-448.819s200.909-448.819 448.819-448.819 448.819 200.909 448.819 448.819-200.909 448.819-448.819 448.819zM708.096 81.92h-390.144v59.802l221.696 245.555c13.824 14.95 24.781 27.546 32.87 37.786 7.987 10.24 15.77 23.654 23.245 40.243s11.264 32.87 11.264 48.947c0 27.648-9.523 49.971-28.672 66.765s-43.315 25.293-72.602 25.293c-31.539 0-56.73-9.421-75.571-28.262s-28.262-41.779-28.262-68.915v-4.506h-86.016v3.686c0 31.027 6.861 59.699 20.685 86.323 13.824 26.522 35.635 48.435 65.536 65.536s65.024 25.702 105.37 25.702c56.934 0 102.912-15.462 137.728-46.49s52.326-69.939 52.326-117.043c0-14.95-2.048-29.696-6.246-44.442-4.198-14.643-8.602-26.931-13.312-36.966-4.71-9.933-12.698-22.426-24.064-37.376s-20.070-26.010-26.112-33.178c-6.042-7.168-17.101-19.354-32.563-36.557l-151.347-165.581v-5.427h264.192v-80.896z" />
<glyph unicode="&#xe915;" glyph-name="number3" data-tags="NaiveBlueSymbolsvg-03" d="M512 832.819c-247.91 0-448.819-200.909-448.819-448.819s200.909-448.819 448.819-448.819 448.819 200.909 448.819 448.819-200.909 448.819-448.819 448.819zM659.251 124.621c-40.346-32.666-91.546-48.947-153.498-48.947-59.802 0-107.622 15.258-143.565 45.363-35.942 30.208-54.989 67.379-57.242 113.459h82.944c1.638-15.36 7.782-28.672 18.227-40.858 10.547-12.186 24.474-21.811 41.882-28.672 17.408-6.963 36.966-10.445 58.47-10.445 37.069-0.512 66.765 8.704 89.19 27.75s33.587 43.52 33.587 73.421c-0.512 29.286-11.776 53.043-33.587 71.27-21.709 18.33-50.381 27.341-85.709 27.341h-64.512v77.824h61.952c29.901 0 54.682 8.909 74.24 26.317 19.661 17.408 29.184 39.834 28.672 66.867 0 26.522-9.728 48.23-29.082 64.819s-44.237 24.883-74.65 24.883c-19.354 0-36.966-3.686-52.736-11.162s-27.955-16.998-36.557-28.877c-8.602-11.878-13.414-25.088-14.541-38.4h-83.866c1.126 43.008 18.432 80.486 51.917 110.592s79.258 45.158 137.318 45.158c56.422 0.512 102.093-13.619 136.909-42.394s52.838-65.331 53.965-109.568c1.126-38.707-9.83-70.554-33.382-95.437s-48.23-39.526-74.854-44.032v-5.837c13.312-1.126 26.726-4.813 40.858-11.162s27.648-14.95 40.96-25.702c13.312-10.752 24.166-25.498 32.768-44.032s13.107-38.912 13.619-61.030c0.717-52.941-19.251-95.846-59.699-128.512z" />
<glyph unicode="&#xe916;" glyph-name="number4" data-tags="NaiveBlueSymbolsvg-04" d="M512 832.819c-247.91 0-448.819-200.909-448.819-448.819s200.909-448.819 448.819-448.819 448.819 200.909 448.819 448.819-200.909 448.819-448.819 448.819zM694.784 204.8h-75.776v-115.712h-84.992v115.712h-290.816v81.306c18.432 30.413 38.81 64 60.723 101.069 21.811 37.069 43.008 67.994 59.085 93.184s37.99 59.392 65.946 103.424c27.955 44.032 48.026 77.722 60.211 95.13h129.946v-393.216h75.776v-80.896zM328.192 288.563v-2.867h205.824v317.44h-3.482c-80.179-120.832-149.094-224.973-202.342-314.573z" />
<glyph unicode="&#xe917;" glyph-name="number5" data-tags="NaiveBlueSymbolsvg-05" d="M512 832.819c-247.91 0-448.819-200.909-448.819-448.819s200.909-448.819 448.819-448.819 448.819 200.909 448.819 448.819-200.909 448.819-448.819 448.819zM690.381 168.346c-18.022-31.539-43.008-56.013-75.059-73.421s-69.12-26.112-111.206-26.112c-55.91 0-102.093 14.643-138.547 44.237s-56.218 67.174-58.982 112.23h83.866c5.53-24.576 19.354-44.442 41.472-57.446s47.616-19.456 76.39-19.456c32.051 0 60.211 11.366 84.275 34.099s36.147 53.453 36.147 92.16c0 34.816-11.878 63.078-35.635 84.685s-52.326 32.358-85.504 32.358c-18.842 0-36.25-3.277-52.326-9.933s-28.672-14.438-37.786-22.938-16.589-17.818-22.118-28.058h-76.39l25.702 344.064h342.426v-80.896h-267.674l-14.95-176.128h4.198c3.277 5.12 8.294 10.445 14.95 15.974s14.848 11.059 24.474 16.282c9.728 5.222 21.606 9.728 35.635 13.312 14.131 3.584 28.877 5.427 44.442 5.427 34.304 0 65.741-7.475 94.208-22.426s51.405-37.069 68.915-66.355c17.408-29.286 26.112-63.59 26.112-102.912 0-40.96-9.011-77.21-27.034-108.749z" />
<glyph unicode="&#xe918;" glyph-name="number6" data-tags="NaiveBlueSymbolsvg-06" d="M602.829 364.749c-23.245 20.48-51.405 30.72-84.685 30.72-35.43 0-64.41-10.957-87.142-32.768s-33.997-49.971-33.997-84.275c0-25.498 5.53-47.616 16.589-66.355 11.059-18.842 25.702-32.87 44.032-42.291 18.227-9.421 38.4-14.131 60.621-14.131 34.816 0 63.488 10.547 85.914 31.539s33.587 51.2 33.587 90.419c0 37.581-11.674 66.662-34.918 87.142zM512 832.819c-247.91 0-448.819-200.909-448.819-448.819s200.909-448.819 448.819-448.819 448.819 200.909 448.819 448.819-200.909 448.819-448.819 448.819zM666.726 131.482c-38.707-36.557-88.474-54.784-149.402-54.784-78.541 0-136.909 30.72-175.104 92.058-28.774 48.64-43.11 113.971-43.11 195.789 0 108.442 20.378 189.952 61.030 244.736s96.154 82.022 166.4 82.022c54.17 0 98.202-14.438 131.994-42.701s52.019-58.88 54.784-97.792h-88.781c-3.891 17.408-14.336 30.106-31.539 42.496-17.101 12.493-40.141 19.251-68.915 19.251-41.472 0-74.957-20.070-100.454-59.904-25.498-39.629-38.195-95.949-38.195-167.629h5.018c9.933 26.624 27.546 44.339 52.736 61.235s57.139 25.498 95.846 25.498c32.051 0 61.952-6.963 89.6-20.787s50.586-35.533 68.915-65.126c18.227-29.594 27.341-64 27.341-103.322 0-64.102-19.354-114.483-58.163-151.040z" />
<glyph unicode="&#xe919;" glyph-name="number7" data-tags="NaiveBlueSymbolsvg-07" d="M512 832.819c-247.91 0-448.819-200.909-448.819-448.819s200.909-448.819 448.819-448.819 448.819 200.909 448.819 448.819-200.909 448.819-448.819 448.819zM706.56 585.011l-242.483-509.235h-93.798l245.146 505.856v6.144h-295.936v79.872h387.072v-82.637z" />
<glyph unicode="&#xe91a;" glyph-name="number8" data-tags="NaiveBlueSymbolsvg-08" d="M603.853 331.674c-24.371 19.968-54.784 29.901-91.238 29.901s-66.97-9.933-91.238-29.901c-24.371-19.866-36.557-45.363-36.557-76.39s12.186-56.32 36.557-75.981c24.371-19.661 54.784-29.491 91.238-29.491s66.97 9.83 91.238 29.491c24.371 19.661 36.557 44.954 36.557 75.981s-12.186 56.525-36.557 76.39zM436.224 458.24c19.866-17.408 45.363-26.112 76.39-26.112s56.422 8.704 76.39 26.112 29.901 39.936 29.901 67.584c0 27.136-9.933 49.152-29.901 65.946-19.866 16.896-45.363 25.293-76.39 25.293-20.48 0-38.707-3.686-54.784-11.162s-28.672-18.227-37.786-32.358c-9.114-14.131-13.722-30.003-13.722-47.718 0.102-27.546 10.035-50.074 29.901-67.584zM512 832.819c-247.91 0-448.819-200.909-448.819-448.819s200.909-448.819 448.819-448.819 448.819 200.909 448.819 448.819-200.909 448.819-448.819 448.819zM666.931 124.211c-40.346-32.666-92.467-48.947-156.058-48.947s-115.302 16.179-154.829 48.538c-39.526 32.358-59.494 74.24-59.494 125.747 0 22.118 3.482 42.291 11.264 60.621s17.101 33.178 29.594 44.851c12.493 11.571 23.859 20.89 37.171 27.75 13.312 6.963 24.474 12.083 37.786 15.36v5.018c-21.504 8.294-46.592 23.552-65.946 45.67s-26.112 50.586-26.112 85.504c0 22.733 4.813 43.725 14.541 63.078s22.835 36.147 39.424 50.176c16.589 14.131 36.864 24.986 60.928 32.768s49.869 11.571 77.517 11.571c56.422 0 102.502-14.848 138.445-44.442s53.76-67.379 53.76-113.254c0-35.43-10.24-64-29.798-85.914-19.661-21.811-42.598-36.966-69.222-45.261v-5.018c13.312-3.277 28.16-8.397 41.37-15.36 13.312-6.963 26.931-16.179 39.322-27.75 12.493-11.571 22.426-26.419 29.901-44.442s11.162-37.99 11.162-60.211c-0.102-51.302-20.378-93.389-60.723-126.054z" />
<glyph unicode="&#xe91b;" glyph-name="number9" data-tags="NaiveBlueSymbolsvg-09" d="M505.139 613.888c-33.178 0-61.030-11.162-83.354-33.587-22.426-22.426-33.69-52.429-33.69-90.112 0-38.707 11.366-68.608 33.997-89.6 22.733-20.992 50.893-31.539 84.685-31.539 33.178 0 61.44 10.342 84.685 31.13s34.816 50.176 34.816 88.371c0 38.707-11.366 69.325-33.997 91.75-22.733 22.323-51.712 33.587-87.142 33.587zM512 832.819c-247.91 0-448.819-200.909-448.819-448.819s200.909-448.819 448.819-448.819 448.819 200.909 448.819 448.819-200.909 448.819-448.819 448.819zM497.664 76.083c-53.658 0-96.358 13.005-128.205 38.912-31.846 26.010-49.664 58.061-53.555 92.877h87.962c2.765-8.192 7.987-17.306 15.77-25.293s18.637-14.746 32.768-20.275c14.131-5.53 29.696-8.397 46.899-8.397 33.792 0 61.645 10.138 83.866 30.925 22.118 20.787 37.478 47.104 46.080 80.077 8.602 32.87 12.288 73.114 11.162 114.074h-5.018c-9.933-22.528-27.238-45.568-51.814-62.157s-55.706-23.962-93.389-23.962c-54.17 0-99.43 17.715-135.68 53.146s-54.374 83.558-54.374 144.384c0 61.952 19.763 111.104 59.29 147.251 39.526 36.25 89.805 54.374 150.63 54.374 22.733 0 44.032-2.765 63.898-8.294s39.424-15.36 58.47-29.491c19.046-14.131 35.226-32.051 48.538-53.965 13.312-21.811 24.064-50.176 32.358-85.094 8.294-34.816 12.493-74.957 12.493-120.32 0.102-212.582-75.981-318.771-228.147-318.771z" />
<glyph unicode="&#xe91c;" glyph-name="menu" data-tags="NaiveBlueSymbolsvg-10" d="M68.813 724.992h886.477c38.093 0 68.813 30.925 68.813 68.608 0 37.99-30.822 68.608-68.813 68.608h-886.477c-38.195 0-68.813-30.925-68.813-68.608 0-37.99 30.822-68.608 68.813-68.608zM955.187 451.584h-886.374c-38.195 0-68.813-30.413-68.813-68.096 0-37.99 30.822-68.096 68.813-68.096h886.477c38.093 0 68.813 30.413 68.813 68.096-0.102 37.99-30.925 68.096-68.915 68.096zM955.187 41.984h-886.374c-38.195 0-68.813-30.925-68.813-68.608 0-37.99 30.822-68.608 68.813-68.608h886.477c38.093 0 68.813 30.925 68.813 68.608-0.102 37.99-30.925 68.608-68.915 68.608z" />
<glyph unicode="&#xe91d;" glyph-name="logo" data-tags="NaiveBlueSymbolsvg-11" d="M0 510.464h202.752v16.384h-202.752v-16.384zM0 476.672h202.752v16.384h-202.752v-16.384zM0 443.904h202.752v16.384h-202.752v-16.384zM0 410.112h202.752v16.384h-202.752v-16.384zM0 376.32h202.752v16.384h-202.752v-16.384zM0 343.552h202.752v15.36h-202.752v-15.36zM0 309.76h202.752v16.384h-202.752v-16.384zM0 275.968h202.752v16.384h-202.752v-16.384zM0 243.2h202.752v15.36h-202.752v-15.36zM676.864 422.4v12.288h-17.408v-12.288h17.408zM600.064 459.264h12.288v5.12h35.84v-5.12h12.288v5.12h25.6v12.595c0 1.638-1.229 2.867-2.867 2.867s-2.867-1.126-2.867-3.174h-19.866v3.379c2.048 0 3.072 1.229 3.072 2.867s-1.331 2.867-2.97 2.867h-12.288v-9.216h-35.84v3.379c1.024 0 2.765 1.229 2.765 2.867s-1.638 2.867-3.277 2.867h-11.878v-9.216h-23.552v-12.288h23.552v-4.915zM676.864 452.71c0 1.638-1.126 3.277-2.867 3.277-1.638 0-2.867-1.843-2.867-2.867h-21.299c0 1.024 0 2.048 0 3.072h-12.186c0-20.48-1.024-22.938-5.325-30.72l10.65-5.837c3.994 7.27 5.734 11.981 6.451 21.197h27.443v11.878zM516.915 390.656l-2.56-9.318 36.454-10.752 3.379 11.776-26.931 8.192h31.744v10.342c0 1.638-1.638 2.97-3.277 2.97s-3.277-1.024-3.277-3.072h-5.632v60.416h-36.864v5.12h46.080v10.547c0 1.638-1.536 2.867-3.277 2.867-1.638 0-3.277-1.126-3.277-3.174h-39.526v3.379c2.048 0 3.072 1.229 3.072 2.867s-1.331 2.867-3.072 2.867h-12.288v-9.216h-45.056v-10.24h45.056v-5.12h-36.864v-60.416h-11.264v-10.24h30.925l-26.931-8.294 3.379-11.776 36.454 10.752-2.56 9.216h26.112zM473.088 400.896v6.144h56.32v9.216h-56.32v6.144h56.32v9.216h-56.32v6.144h56.32v9.216h-56.32v6.144h61.44v-52.224h-61.44zM585.728 453.12v-30.72h12.288v24.166c2.048 0 3.072 1.536 3.072 3.277 0 1.638-1.331 3.277-2.97 3.277h-12.39zM612.352 456.192v-33.792h11.264v27.238c2.048 0 3.277 1.638 3.277 3.277s-1.126 3.277-2.867 3.277h-11.674zM376.218 408.064c9.114-18.739 27.238-31.642 53.248-37.478l2.97 13.107c0.102 0.307 0.102 0.614 0.102 0.922 0 1.638-1.331 3.072-3.072 3.072-1.434 0-2.56-0.819-2.867-2.15-23.142 6.554-37.171 20.48-41.779 39.936h46.285v11.981c0 1.638-1.434 3.174-3.174 3.174-1.638 0-3.174-1.843-3.174-2.867h-41.779c-0.102 2.048-0.102 4.096 0 5.12v0c0 1.024 0 0.614 0 0.717v20.787h45.056v12.595c0 1.638-1.434 2.867-3.174 2.867-1.638 0-3.174-1.126-3.174-3.174h-97.075v-12.288h44.646v-21.094c0.102-2.048 0-3.482 0-5.53h-47.718v-12.288h45.978c-5.018-21.504-20.992-35.43-47.616-41.472l2.97-13.414c26.010 5.837 44.134 18.739 53.35 37.478zM683.213 388.71c-1.638 0-2.867-1.126-2.867-3.174h-3.482v30.72h-91.136v-30.72h-9.216v-12.288h109.568v12.493c0 1.741-1.229 2.97-2.867 2.97zM612.352 385.536h-14.336v18.432h14.336v-18.432zM638.976 385.536h-15.36v18.432h15.36v-18.432zM665.6 385.536h-14.336v18.432h14.336v-18.432zM567.808 263.782l-21.299 58.266h-18.227l28.877-78.848h21.299l28.877 78.848h-18.227l-21.299-58.266zM497.664 334.336h18.432v18.432h-18.432v-18.432zM497.664 243.2h18.432v78.848h-18.432v-78.848zM826.368 243.2h18.432v109.568h-18.432v-109.568zM914.432 277.811c0-11.059-6.758-19.763-18.432-19.763-10.24 0-15.36 6.042-15.36 16.691v47.309h-17.408v-47.309c0-19.046 9.216-33.485 30.208-33.485 9.626 0 18.944 5.427 20.992 11.674v-9.728h18.432v78.848h-18.432v-44.237zM364.032 323.379c-9.626 0-18.944-5.427-20.992-11.674v10.24h-18.432v-78.848h18.432v43.725c0 11.059 6.246 19.763 17.92 19.763 10.24 0 14.848-6.042 14.848-16.691v-46.797h18.432v46.797c0 19.046-9.216 33.485-30.208 33.485zM444.416 323.379c-16.691 0-31.744-9.523-31.744-25.907h18.227c0 8.192 7.782 10.65 15.258 10.65 9.933 0 15.258-3.072 15.258-9.114 0-5.222-6.144-8.090-17.51-8.806-15.667-1.024-34.202-4.71-34.202-24.576 0-16.998 13.517-24.371 27.136-24.371 8.397 0 19.968 2.662 24.064 10.547v-8.602h18.432v52.838c-0.102 16.896-10.035 27.341-34.918 27.341zM460.8 274.125c0-10.547-9.216-17.613-20.992-17.613-6.451 0-12.288 2.56-12.288 9.114 0 14.336 25.19 9.318 33.382 16.998v-8.499zM648.192 323.379c-26.214 0-37.888-20.582-37.888-41.062 0-24.576 15.872-41.267 39.526-41.267 17.101 0 30.003 8.294 34.816 22.63h-19.968c-3.584-6.144-10.138-7.578-14.848-7.578-7.066 0-18.33 5.53-20.787 19.866h57.037v0.205c2.048 32.256-15.565 47.206-37.888 47.206zM629.658 291.328c2.355 10.24 8.806 16.691 18.739 16.691 9.421 0 16.384-4.403 18.432-16.691h-37.171zM986.010 323.379c-26.214 0-37.99-20.582-37.99-41.062 0-24.576 15.872-41.267 39.526-41.267 17.101 0 29.901 8.294 34.714 22.63h-19.968c-3.584-6.144-10.138-7.578-14.848-7.578-7.066 0-18.33 5.53-20.787 19.866h57.344v0.205c1.024 32.256-15.77 47.206-37.99 47.206zM967.27 291.328c2.355 10.24 8.806 16.691 18.739 16.691 9.421 0 16.384-4.403 18.432-16.691h-37.171zM777.83 323.379c-9.523 0-16.998-3.584-21.094-9.523v38.912h-18.432v-109.568h18.432v7.68c4.096-6.042 11.571-9.523 21.094-9.523 22.221 0 33.485 16.077 33.485 41.062 0 24.883-15.36 40.96-33.485 40.96zM774.758 256.512c-11.776 0-18.022 11.162-18.022 25.805v0c0 14.746 6.246 25.805 18.022 25.805s18.227-11.162 18.227-25.805-6.451-25.805-18.227-25.805z" />
<glyph unicode="&#xe91e;" glyph-name="dot" data-tags="NaiveBlueSymbolsvg-12" d="M639.488 384c0-70.41-57.078-127.488-127.488-127.488s-127.488 57.078-127.488 127.488c0 70.41 57.078 127.488 127.488 127.488s127.488-57.078 127.488-127.488z" />
<glyph unicode="&#xe91f;" glyph-name="location-gray" data-tags="NaiveBlueSymbolsvg-13" d="M512 896c-221.286 0-400.691-174.49-400.691-389.837 0-82.534 26.419-159.027 71.373-222.003 2.15-3.584 4.096-7.168 6.656-10.342l308.019-395.162c3.686-3.891 8.806-6.656 14.643-6.656 6.042 0 11.059 2.765 14.848 6.963l307.712 394.854c2.458 3.072 4.506 6.554 6.554 10.035 45.056 63.078 71.578 139.674 71.578 222.31 0 215.347-179.405 389.837-400.691 389.837zM511.078 337.101c-95.846 0-173.568 75.674-173.568 168.858s77.722 168.858 173.568 168.858c95.846 0 173.568-75.674 173.568-168.858s-77.722-168.858-173.568-168.858z" />
<glyph unicode="&#xe920;" glyph-name="location-white" data-tags="NaiveBlueSymbolsvg-14" d="M512 896c-215.347 0-389.837-174.49-389.837-389.837 0-82.534 25.702-159.027 69.427-222.003 2.048-3.584 4.096-7.066 6.451-10.342l299.622-395.162c3.584-3.994 8.499-6.656 14.234-6.656 5.939 0 10.854 2.867 14.438 6.963l299.418 394.854c2.458 3.174 4.403 6.656 6.349 10.035 43.827 63.078 69.632 139.674 69.632 222.208 0.102 215.45-174.387 389.939-389.734 389.939zM511.078 301.875c-112.64 0-204.083 91.341-204.083 204.083 0 112.64 91.443 204.083 204.083 204.083 112.742 0 204.083-91.443 204.083-204.083s-91.341-204.083-204.083-204.083z" />
<glyph unicode="&#xe921;" glyph-name="alipay" data-tags="NaiveBlueSymbolsvg-15" d="M972.8 213.811v453.734c0 97.792-79.36 176.742-177.254 176.742h-567.091c-97.792 0-177.254-78.848-177.254-176.742v-567.194c0-97.894 79.36-177.766 177.254-177.766h567.194c87.245 0 159.744 63.283 174.49 146.227-47.002 20.173-250.675 108.339-356.762 159.027-80.896-97.69-165.376-156.262-292.864-156.262s-212.582 78.438-202.24 174.592c6.758 63.078 49.971 166.195 237.875 148.48 99.021-9.318 144.384-27.853 225.178-54.477 20.787 38.298 38.195 74.035 51.302 119.091h-358.195v51.2h177.152v51.2h-216.064v51.2h216.064v82.842c0 0 2.048 14.438 17.92 14.438h88.576v-97.28h230.4v-51.2h-230.4v-51.2h187.904c-17.203-70.656-43.418-144.282-76.288-200.806 54.682-19.661 303.104-95.846 303.104-95.846zM157.594 252.826c-7.066-35.43 14.234-120.525 148.89-120.525 82.944 0 162.816 50.381 227.738 134.963-92.57 45.056-169.574 67.072-255.59 67.072-75.059 0-113.971-46.080-121.037-81.51z" />
<glyph unicode="&#xe922;" glyph-name="search" data-tags="NaiveBlueSymbolsvg-16" d="M669.696 287.846c37.171 52.941 59.085 118.17 59.085 188.723 0 177.254-138.547 320.922-309.555 320.922-170.906 0-309.555-143.667-309.555-320.922s138.547-320.922 309.555-320.922c71.066 0 136.499 24.781 188.723 66.56l243.712-252.723 62.566 64.819-244.531 253.542zM419.328 247.398c-122.061 0-221.082 102.605-221.082 229.274s99.021 229.274 221.082 229.274 221.082-102.605 221.082-229.274c0-126.669-98.918-229.274-221.082-229.274z" />
<glyph unicode="&#xe923;" glyph-name="makeup" data-tags="NaiveBlueSymbolsvg-17" d="M360.141 433.664h-79.872c-18.637 0-35.533-14.746-35.533-33.485v-247.808c0-18.739 16.896-34.099 35.533-34.099h79.872c18.637 0 32.051 15.36 32.051 34.099v247.808c0 18.739-13.414 33.485-32.051 33.485zM684.544 286.208h-89.293l-15.462-157.286c-0.307-2.867 0.512-5.734 2.15-7.578s4.096-3.072 7.066-3.072h101.99c2.867 0 5.427 1.536 7.066 3.379s2.355 4.198 2.15 7.066l-15.667 157.491zM354.202 494.080c-0.205 8.192-0.307 25.19-0.41 43.725v0.922c1.126 40.038-23.245 87.962-46.592 108.032-3.482 2.97-6.861 4.403-8.397 5.12-11.878-10.445-21.197-49.152-21.197-79.667v-79.872c0 0 2.355 1.741 2.765 1.741h73.83zM656.691 433.664h-33.382c-7.475 0-14.541-8.090-15.36-16.486l-8.909-82.842h81.306l-6.861 83.149c-0.614 7.68-8.806 16.179-16.794 16.179zM641.024 652.288c-49.152 0-96.563-15.053-134.451-42.496l79.36-113.664h106.086l78.848 117.453c-35.84 24.064-78.131 37.376-123.085 38.605l-6.758 0.102zM956.518 895.488h-884.019c-38.81 0-74.547-30.003-74.547-68.71v-884.019c0-38.81 35.84-71.27 74.547-71.27h884.019c38.81 0 65.434 32.666 65.434 71.27v884.019c0 38.81-26.829 68.71-65.434 68.71zM448.512 152.371c0-50.893-37.888-91.443-88.371-91.443h-79.872c-50.483 0-95.949 40.55-95.949 91.443v247.808c0 27.136 12.288 52.429 33.792 70.144v101.888c0 10.547 2.662 104.141 54.682 132.506 5.12 2.765 14.131 5.939 24.678 5.939 11.162 0 22.835-3.482 34.099-10.445 39.014-24.269 81.613-98.918 79.77-162.611 0.205-36.454-0.819-53.862-0.512-61.952 24.678-17.306 37.786-45.261 37.786-75.366v-247.91zM834.15 604.365l-102.605-158.515c-1.229-1.946-2.765-3.789-4.403-5.325 2.15-5.837 3.482-11.674 4.096-17.408l26.522-288.256c1.741-19.354-4.301-37.888-16.998-52.019-12.698-14.029-30.31-21.914-49.664-21.914h-101.99c-19.354 0-36.966 7.885-49.766 21.914-12.698 14.029-18.739 32.563-16.998 51.917l26.624 288.256c0.614 7.066 2.458 14.029 5.222 20.787-2.867 1.843-5.12 4.096-7.066 6.758l-103.219 147.866c-8.294 11.981-6.554 28.365 4.096 38.195 53.453 49.562 125.44 75.981 201.523 73.83 66.765-1.843 130.458-26.010 179.2-67.994 10.957-9.523 13.312-25.907 5.427-38.093z" />
<glyph unicode="&#xe924;" glyph-name="camera" data-tags="NaiveBlueSymbolsvg-18" d="M519.885 226.714c54.579 0 99.021 44.646 99.021 99.43s-44.442 99.43-99.021 99.43c-54.579 0-99.021-44.646-99.021-99.43-0.102-54.784 44.339-99.43 99.021-99.43zM419.328 641.536h-66.56v-32.768h66.56v32.768zM952.013 895.488h-880.333c-38.912 0-72.192-30.72-72.192-69.837v-883.917c0-39.117 33.178-70.246 72.192-70.246h880.333c38.912 0 71.475 31.13 71.475 70.246v883.917c0 39.014-32.461 69.837-71.475 69.837zM849.408 77.312c0-18.33-14.234-33.792-32.461-33.792h-594.227c-18.227 0-33.792 15.565-33.792 33.792v497.664c0 18.33 15.565 33.792 33.792 33.792h63.488v65.229c0 18.33 17.306 32.051 35.533 32.051h132.096c18.227 0 31.027-13.824 31.027-32.051v-65.229h332.083c18.227 0 32.461-15.462 32.461-33.792v-497.664zM453.837 542.208h-132.096c-1.946 0-3.789 0-5.632 0h-62.669v-432.128h529.408v432.128h-323.379c-1.843 0-3.686 0-5.632 0zM717.926 508.621c18.227 0 32.973-14.848 32.973-33.178s-14.746-33.178-32.973-33.178-32.973 14.848-32.973 33.178 14.746 33.178 32.973 33.178zM684.954 326.144c0-91.341-74.035-165.683-165.069-165.683s-165.069 74.342-165.069 165.683c0 91.341 74.035 165.683 165.069 165.683 90.931 0 165.069-74.342 165.069-165.683z" />
<glyph unicode="&#xe925;" glyph-name="retouch" data-tags="NaiveBlueSymbolsvg-19" d="M954.061 894.464h-881.562c-38.912 0-75.571-31.539-75.571-70.554v-881.152c0-39.014 36.557-72.294 75.571-72.294h881.562c39.014 0 66.867 33.178 66.867 72.294v881.152c0 38.912-27.853 70.554-66.867 70.554zM256 501.35c0-18.125-13.619-32.768-31.744-32.768s-31.744 14.643-31.744 32.768v179.61c0 18.125 17.101 31.232 35.226 31.232h178.586c18.125 0 32.768-14.131 32.768-32.256s-14.746-32.256-32.768-32.256h-150.323v-146.33zM492.749 204.288c-21.709-22.221-50.074-33.382-85.094-33.382-19.968 0-37.786 3.891-53.248 11.571s-27.853 18.33-37.171 31.744c-9.421 13.414-16.384 28.672-21.094 45.568s-7.066 35.226-7.066 54.784c1.126-0.819 4.506-3.277 10.035-7.475s10.65-7.885 15.155-11.059c4.506-3.277 9.318-6.246 14.438-9.114 5.018-2.867 8.806-4.198 11.264-4.198 6.656 0 11.162 3.072 13.414 9.216 4.096 10.957 8.704 20.275 14.029 28.058 5.325 7.68 10.957 14.029 16.998 18.944s13.21 8.806 21.504 11.878c8.294 2.97 16.691 5.12 25.088 6.349 8.499 1.229 18.637 2.15 30.515 2.662 6.349-12.595 14.95-23.45 26.010-32.358 10.957-9.011 23.245-15.258 36.762-18.944l0.205-17.715c0.512-35.533-10.035-64.307-31.744-86.528zM554.086 336.077c-20.992 0-39.014 7.578-54.17 22.63-15.053 15.053-22.63 32.973-22.63 53.76 0 20.89 7.68 38.195 23.040 51.917l158.413 141.722c9.83 8.806 19.149 13.21 31.437 13.21v0c9.216 0 23.040-3.789 31.744-11.366s13.722-17.101 13.722-28.57c0-10.24-3.482-22.63-10.957-36.966-55.296-102.605-94.003-164.045-116.122-184.115-16.282-14.746-34.304-22.221-54.477-22.221zM850.944 85.709c0-18.125-11.776-36.045-29.901-36.045h-178.586c-18.125 0-32.768 15.667-32.768 33.792s14.746 33.792 32.768 33.792h141.926v148.070c0 18.125 15.155 32.768 33.28 32.768s33.28-14.643 33.28-32.768v-179.61z" />
<glyph unicode="&#xe926;" glyph-name="print" data-tags="NaiveBlueSymbolsvg-20" d="M258.56 278.016h357.376v357.376h-357.376v-357.376zM953.958 895.488h-881.050c-39.834 0-75.469-30.925-75.469-70.554v-881.050c0-39.834 35.942-72.397 75.469-72.397h881.050c39.834 0 67.482 32.87 67.482 72.397v881.050c0 39.834-27.955 70.554-67.482 70.554zM188.928 242.381v428.032c0 19.661 18.842 34.714 38.605 34.714h428.032c19.661 0 31.027-14.95 31.027-34.714v-428.032c0-19.661-11.366-35.021-31.027-35.021h-428.032c-19.763 0-38.605 15.258-38.605 35.021zM855.552 74.752c0-19.661-12.698-36.352-32.358-36.352h-428.032c-19.661 0-37.274 16.589-37.274 36.352v89.6h70.656v-55.296h356.352v359.424h-52.224v70.656h90.522c19.661 0 32.358-16.691 32.358-36.454v-427.93z" />
<glyph unicode="&#xe927;" glyph-name="arrow-up" data-tags="NaiveBlueSymbolsvg-21" d="M275.968 189.952c-27.955-27.955-73.421-27.955-101.376 0s-27.955 73.421 0 101.376l286.72 286.72c27.955 27.955 73.421 27.955 101.376 0l286.72-286.72c27.955-27.955 27.955-73.421 0-101.376s-73.421-27.955-101.376 0l-236.032 236.032-236.032-236.032z" />
<glyph unicode="&#xe928;" glyph-name="arrow-down" data-tags="NaiveBlueSymbolsvg-22" d="M748.032 578.048c27.955 27.955 73.421 27.955 101.376 0s27.955-73.421 0-101.376l-286.72-286.72c-27.955-27.955-73.421-27.955-101.376 0l-286.72 286.72c-27.955 27.955-27.955 73.421 0 101.376s73.421 27.955 101.376 0l236.032-236.032 236.032 236.032z" />
<glyph unicode="&#xe929;" glyph-name="arrow-left" data-tags="NaiveBlueSymbolsvg-23" d="M706.048 147.968c27.955-27.955 27.955-73.421 0-101.376s-73.421-27.955-101.376 0l-286.72 286.72c-27.955 27.955-27.955 73.421 0 101.376l286.72 286.72c27.955 27.955 73.421 27.955 101.376 0s27.955-73.421 0-101.376l-236.032-236.032 236.032-236.032z" />
<glyph unicode="&#xe92a;" glyph-name="arrow-right" data-tags="NaiveBlueSymbolsvg-24" d="M317.952 620.032c-27.955 27.955-27.955 73.421 0 101.376s73.421 27.955 101.376 0l286.72-286.72c27.955-27.955 27.955-73.421 0-101.376l-286.72-286.72c-27.955-27.955-73.421-27.955-101.376 0s-27.955 73.421 0 101.376l236.032 236.032-236.032 236.032z" />
<glyph unicode="&#xe92b;" glyph-name="phone1" data-tags="NaiveBlueSymbolsvg-25" d="M433.357 305.357c-101.376 101.274-198.246 218.624-151.757 265.114 66.355 66.458 124.211 107.315 6.554 253.747s-196.096 33.997-260.506-30.413c-74.138-74.24-3.891-350.925 269.619-624.538 273.51-273.408 550.298-343.859 624.538-269.517 64.41 64.307 176.742 142.746 30.413 260.403s-187.29 59.802-253.747-6.656c-46.49-46.285-163.738 50.586-265.114 151.859v0z" />
<glyph unicode="&#xe92c;" glyph-name="remind" data-tags="NaiveBlueSymbolsvg-26" d="M407.962 821.453v0 0 0zM407.859 821.453c-35.123 45.261-90.010 74.547-151.859 74.547-106.086 0-192-85.914-192-192 0-34.611 9.114-67.174 25.19-95.13 73.523 107.315 186.778 185.344 318.669 212.582zM934.81 608.768v0c16.077 28.058 25.19 60.621 25.19 95.232 0 106.086-85.914 192-192 192-61.85 0-116.838-29.286-151.962-74.65 131.891-27.238 245.248-105.165 318.771-212.582zM64 320c0-247.398 200.602-448 448-448s448 200.602 448 448-200.602 448-448 448-448-200.602-448-448zM512-40.038c-198.861 0-360.038 161.178-360.038 360.038s161.178 360.038 360.038 360.038 360.038-161.178 360.038-360.038-161.178-360.038-360.038-360.038zM512 576h-64v-320h256v64h-192v256z" />
<glyph unicode="&#xe92d;" glyph-name="calender" data-tags="NaiveBlueSymbolsvg-27" d="M159.232 297.267v50.995c0 4.915 3.994 8.909 8.909 8.909h209.92c4.915 0 8.909-3.994 8.909-8.909v-50.995c0-4.915-3.994-8.909-8.909-8.909h-209.92c-4.915 0-8.909 3.994-8.909 8.909zM159.232 137.421v50.995c0 4.915 3.994 8.909 8.909 8.909h209.92c4.915 0 8.909-3.994 8.909-8.909v-50.995c0-4.915-3.994-8.909-8.909-8.909h-209.92c-4.915 0-8.909 3.994-8.909 8.909zM730.522 92.365v147.046c0 4.915 3.994 8.806 8.806 8.806h50.79c4.915 0 8.806-3.994 8.806-8.806v-78.336c0-4.915 3.994-8.806 8.806-8.806h78.029c4.915 0 8.806-3.994 8.806-8.806v-51.098c0-4.915-3.994-8.806-8.806-8.806h-146.432c-4.813 0-8.806 3.994-8.806 8.806zM97.894 683.622c-7.885 0-15.258-3.072-20.89-8.704-5.53-5.632-8.602-13.005-8.602-20.89v-155.136c0-1.331 1.024-2.355 2.355-2.355h747.725c1.331 0 2.355 1.024 2.355 2.355v155.136c0 7.885-3.072 15.36-8.602 20.89-5.53 5.632-13.005 8.704-20.89 8.704h-115.2c-1.331 0-2.355-1.024-2.355-2.355v-91.238c0-1.331-1.024-2.355-2.355-2.355h-63.693c-1.331 0-2.355 1.024-2.355 2.355v91.238c0 1.331-1.024 2.355-2.355 2.355h-310.272c-1.331 0-2.355-1.024-2.355-2.355v-91.238c0-1.331-1.024-2.355-2.355-2.355h-63.795c-1.331 0-2.355 1.024-2.355 2.355v91.238c0 1.331-1.024 2.355-2.355 2.355h-121.651zM97.894-36.147c-26.112 0-50.688 10.24-69.222 28.774-18.432 18.534-28.672 43.213-28.672 69.53v607.642c0 26.317 10.24 50.995 28.672 69.53s43.11 28.774 69.222 28.774h121.549c1.331 0 2.355 1.024 2.355 2.355v123.187c0 1.331 1.024 2.355 2.355 2.355h63.693c1.331 0 2.355-1.024 2.355-2.355v-123.187c0-1.331 1.024-2.355 2.355-2.355h310.272c1.331 0 2.355 1.024 2.355 2.355v123.187c0 1.331 1.024 2.355 2.355 2.355h63.693c1.331 0 2.355-1.024 2.355-2.355v-123.187c0-1.331 1.024-2.355 2.355-2.355h115.302c26.214 0 50.79-10.24 69.222-28.774 18.534-18.534 28.672-43.213 28.672-69.53v-239.821c0-1.638-1.741-2.867-3.277-2.15v0c-18.534 7.578-38.298 12.902-58.573 15.77-0.102 0-0.205 0-0.307 0h-756.326c-1.331 0-2.355-1.024-2.355-2.355v-378.982c0-7.885 3.072-15.258 8.704-20.89s13.005-8.704 20.787-8.704h368.845l-0.205-0.717c-0.102-0.512-0.102-1.024 0.102-1.536 9.216-22.63 21.606-43.725 36.864-62.669v0c1.229-1.536 0.102-3.891-1.843-3.891h-403.661zM766.771 319.693c-104.038 0-188.723-84.992-188.723-189.542 0-104.448 84.685-189.542 188.723-189.542s188.723 84.992 188.723 189.542c0.102 104.55-84.582 189.542-188.723 189.542zM766.771-128c-141.824 0-257.229 115.814-257.229 258.253s115.405 258.253 257.229 258.253c141.824 0 257.229-115.814 257.229-258.253s-115.405-258.253-257.229-258.253z" />
<glyph unicode="&#xe92e;" glyph-name="viptag-line" data-tags="NaiveBlueSymbolsvg-28" d="M956.723 532.48h-888.525c-37.274 0-68.71-30.618-68.71-67.994v-161.382c0-37.274 31.539-67.584 68.71-67.584h888.422c37.274 0 66.765 30.31 66.765 67.584v161.382c0.102 37.376-29.389 67.994-66.662 67.994zM1009.152 303.104c0-29.491-22.938-54.272-52.429-54.272h-888.525c-29.491 0-53.35 24.781-53.35 54.272v161.382c0 29.491 23.962 52.634 53.35 52.634h888.422c29.491 0 52.429-23.040 52.429-52.634v-161.382zM668.16 396.288h-40.653l-2.15 9.216h34.611v50.176h-80.896v-50.176h30.106l2.15-9.216h-41.472v-13.312h98.304v13.312zM594.432 444.416h49.152v-9.216h-49.152v9.216zM594.432 416.768v8.192h49.152v-8.192h-49.152zM664.269 310.579l6.861-15.77c29.491 12.493 51.814 33.28 66.662 61.952l-13.312 10.035c-13.312-26.010-33.485-44.749-60.211-56.218zM863.744 366.080c0-24.883-2.048-45.261-6.451-61.235l13.312-12.083c5.222 16.179 8.602 35.942 9.523 61.542h16.384v-36.966c0-5.12-1.638-7.68-4.915-7.68-2.765 0-5.53 0.102-8.602 0.717l4.096-15.462h9.421c10.547 0 15.36 5.939 15.36 16.794v143.974h-48.128v-89.6zM880.128 441.344h16.384v-26.624h-16.384v26.624zM880.128 400.384h16.384v-30.72h-16.384v30.72zM728.576 449.536l-10.547 11.981c-13.107-13.824-30.003-25.088-50.483-33.792l7.066-14.746c21.402 9.626 39.424 21.811 53.965 36.557zM671.13 374.374l7.066-14.541c21.811 10.854 40.141 24.883 55.296 41.779l-10.547 12.083c-13.414-16.179-30.72-29.286-51.814-39.322zM785.92 400.589v11.059h17.408v15.36h-17.408v35.84h-16.384v-35.84h-16.384v-15.36h16.486c-4.403-20.48-11.264-39.526-20.582-55.91l7.27-19.046c5.12 11.264 10.138 23.347 13.21 36.454v-78.234h16.384v86.426c3.072-5.837 7.066-13.107 11.162-21.811l9.114 13.619c-6.861 10.138-14.131 19.251-20.275 27.443zM411.136 303.104h21.504v139.264h-21.504v-139.264zM584.602 333.926c-4.506-10.752-10.035-19.968-16.384-27.853l12.39-8.909c6.554 8.704 12.186 18.944 16.896 30.515l-12.902 6.246zM808.448 366.080c0-23.962-3.789-43.827-11.469-59.392l13.312-11.776c7.987 15.667 12.698 35.942 14.234 59.494h15.667v-36.966c0-5.12-1.843-7.68-5.837-7.68-2.15 0-4.608 0.102-7.066 0.717l4.198-15.462h7.987c11.264 0 17.203 5.939 17.203 16.794v143.872h-48.128v-89.6zM823.808 441.344h16.384v-26.624h-16.384v26.624zM823.808 400.384h16.384v-30.72h-16.384v30.72zM539.648 436.531c-6.963 3.789-14.95 5.837-23.859 5.837h-53.453v-139.264h21.504v50.176h31.744c13.722 0 24.781 3.891 33.075 12.186 8.192 8.192 12.39 18.842 12.39 32.154 0 8.602-1.843 16.282-5.427 23.040-3.686 6.758-9.011 12.083-15.974 15.872zM530.739 377.139c-5.837-3.789-14.746-5.427-26.829-5.427h-20.070v52.224h29.491c8.294 0 14.746-2.458 19.251-7.066 4.506-4.506 6.861-10.957 6.861-19.251 0-9.83-2.97-16.691-8.704-20.48zM658.944 374.784h-78.848v-37.888h30.72v-22.221c0-2.867-1.126-4.506-3.789-4.506-3.482 0-6.861 0.307-10.752 1.024l3.584-15.155h12.698c10.138 0 15.565 5.018 15.565 14.848v26.010h30.72v37.888zM642.56 350.208h-47.104v13.312h47.104v-13.312zM636.211 326.246c6.144-9.318 10.854-17.818 14.541-25.395l12.186 8.499c-3.482 6.861-8.397 15.053-14.95 24.166l-11.776-7.27zM335.667 327.68h-1.024l-36.25 114.688h-24.166l48.947-139.264h23.245l48.947 139.264h-23.757l-35.942-114.688zM178.688 461.21l-17.613 1.946c-2.15-6.554-4.506-12.698-7.27-19.866h-52.941v-17.408h44.544c-11.981-20.48-28.672-40.346-49.766-57.037l10.854-14.336c11.674 9.421 20.992 19.866 31.232 30.925v-90.522h16.384v37.888h67.584v-16.486c0-3.994-2.048-6.042-6.451-6.042-6.042 0-12.186 0.512-18.944 1.126l4.403-15.462h20.378c11.674 0 16.077 5.018 16.077 15.053v98.611h-81.51c3.482 5.12 6.758 11.264 9.626 16.384h95.437v17.408h-87.962c2.048 6.144 4.096 11.674 5.939 17.818zM221.696 347.136h-67.584v16.384h67.584v-16.384zM221.696 394.24v-16.384h-67.584v16.384h67.584z" />
<glyph unicode="&#xe92f;" glyph-name="vip-tag" data-tags="NaiveBlueSymbolsvg-29" d="M816.128 409.6h-44.032v-10.957c14.336 0.717 29.696 1.331 44.032 2.15v8.806zM579.584 323.584h57.344v44.032h-57.344v-44.032zM579.584 385.024h57.344v41.984h-57.344v-41.984zM816.128 430.080h-44.032v-9.216h44.032v9.216zM816.128 451.584h-44.032v-9.216h44.032v9.216zM408.064 431.104h-30.208v-52.224h20.89c12.083 0 20.992 1.638 26.829 5.427 5.734 3.789 8.704 10.547 8.704 20.48 0 8.294-2.253 14.746-6.861 19.251-4.608 4.608-11.059 7.066-19.354 7.066zM872.448 532.48h-720.896c-35.328 0-63.488-28.57-63.488-63.693v-169.574c0-35.226 28.262-63.693 63.488-63.693h720.896c35.328 0 63.488 28.57 63.488 63.693v169.574c0 35.226-28.262 63.693-63.488 63.693zM740.352 451.584v14.336h106.496v-14.336h-13.312v-49.766c5.12 0.41 10.24 0.614 15.36 0.922v-13.722c-5.12-0.205-10.24-0.614-15.36-0.922v-8.192h-17.408v7.27c-23.552-1.126-48.64-2.253-74.342-3.277l-3.379 13.517 16.282 0.614v53.555h-14.336zM241.254 310.272h-23.245l-48.947 139.264h24.166l36.25-114.688h1.024l35.84 114.688h23.757l-48.845-139.264zM326.656 310.272h-21.504v139.264h21.504v-139.264zM443.494 372.634c-8.294-8.294-19.251-12.186-33.075-12.186h-32.563v-50.176h-21.504v139.264h54.272c8.909 0 16.896-1.946 23.859-5.837 6.963-3.789 12.288-9.114 15.872-15.974s5.427-14.438 5.427-23.040c0-13.21-4.096-23.859-12.288-32.051zM552.96 380.109c-6.144-3.482-13.312-6.451-19.456-9.523v-54.067c0-12.595-6.656-18.534-19.251-18.534h-16.794l-4.198 17.408c5.12-0.614 10.138-1.024 14.746-1.024s7.066 2.15 7.066 6.758v41.779c-7.168-2.867-14.95-5.53-22.528-7.987l-4.403 18.33c9.216 2.15 17.715 4.813 26.931 7.782v39.834h-24.576v17.408h24.576v33.792h18.432v-33.792h19.456v-17.408h-19.456v-32.358c6.144 3.072 13.312 6.451 19.456 9.933v-18.33zM654.336 297.984h-17.408v7.168h-57.344v-8.192h-18.432v147.456h29.491c2.253 9.216 3.994 18.739 5.12 28.262l18.33-2.56c-1.331-9.216-3.277-17.51-5.53-25.702h45.773v-146.432zM718.848 316.314c0-12.186-6.246-18.33-18.432-18.33h-14.541l-3.994 17.306c4.198-0.717 8.602-1.229 12.493-1.229 4.608 0 7.066 2.458 7.066 7.066v40.858c-7.168-2.458-12.8-4.813-19.149-6.861l-4.301 17.408c7.987 1.946 15.258 4.403 23.45 7.066v40.243h-20.48v17.408h20.48v34.816h17.408v-34.816h16.384v-17.408h-16.384v-32.461c5.12 2.662 10.24 5.325 14.336 7.987v-18.125c-4.096-2.662-9.216-5.12-14.336-7.475v-53.453zM766.259 315.494c-7.27-7.987-16.077-14.848-26.317-20.48l-9.523 14.541c9.523 4.915 17.613 11.264 24.064 18.534-5.53 5.325-11.469 10.854-17.715 16.384l11.059 10.65c5.734-4.608 11.059-9.216 16.077-13.824 3.072 5.939 5.53 11.878 7.475 19.046h-34.099v15.36h50.176v-14.848c-3.072-11.878-6.144-22.323-11.264-31.539 4.403-4.608 8.499-9.216 12.288-13.722l-12.288-12.39c-2.97 4.301-6.451 8.294-9.933 12.288zM845.926 296.243c-8.806 5.12-16.384 10.65-22.938 16.589-7.475-6.861-16.282-12.8-26.112-17.715l-9.421 14.131c9.523 4.608 17.613 10.035 24.269 16.384-7.782 10.342-13.21 21.504-15.872 34.816h-3.277v15.36h56.32v-14.848c-3.072-13.722-8.192-26.010-15.667-36.25 6.144-5.325 13.21-9.933 21.606-14.131l-8.909-14.336zM821.658 337.51c4.608 7.066 8.192 14.746 10.547 22.938h-21.606c2.253-8.192 5.939-16.077 11.059-22.938z" />
<glyph unicode="&#xe930;" glyph-name="info" data-tags="NaiveBlueSymbolsvg-30" d="M505.139 896c-282.726-3.789-508.826-236.134-505.139-518.861 3.789-282.624 236.032-508.826 518.758-505.037s508.928 236.032 505.139 518.861c-3.686 282.624-236.032 508.826-518.758 505.037zM561.971 725.402c52.019 0 67.379-30.208 67.379-64.717 0-43.11-34.611-83.046-93.491-83.046-49.357 0-72.704 24.883-71.373 65.741 0 34.611 28.979 82.022 97.485 82.022v0zM428.442 64c-35.533 0-61.645 21.606-36.762 116.531l40.755 168.346c7.066 27.034 8.294 37.786 0 37.786-10.65 0-56.832-18.637-84.070-36.966l-17.715 29.082c86.528 72.294 186.061 114.688 228.659 114.688 35.533 0 41.472-42.086 23.757-106.803l-46.694-176.947c-8.294-31.334-4.71-42.086 3.584-42.086 10.65 0 45.67 12.902 79.974 39.936l20.070-27.034c-84.070-84.173-175.821-116.531-211.558-116.531v0z" />
<glyph unicode="&#xe931;" glyph-name="success-line" data-tags="NaiveBlueSymbolsvg-31" d="M874.291 746.086c-96.768 96.666-225.382 149.914-362.189 149.914s-265.421-53.248-362.086-149.914c-96.768-96.666-150.016-225.28-150.016-362.086s53.248-265.318 149.914-362.086c96.666-96.666 225.28-149.914 362.086-149.914s265.523 53.248 362.291 150.016c199.578 199.578 199.68 524.39 0 724.070zM827.085 69.12c-84.173-84.070-196.096-130.458-315.085-130.458s-230.81 46.387-314.88 130.355c-84.070 84.173-130.458 195.994-130.355 314.982 0 118.989 46.285 230.81 130.458 314.88 84.070 84.070 195.994 130.355 314.88 130.355 118.989 0 230.81-46.285 314.982-130.355 173.568-173.67 173.568-456.090 0-629.76zM709.632 555.827l-258.458-258.458-136.806 136.704c-15.667 15.667-41.062 15.667-56.73 0s-15.667-41.062 0-56.73l165.171-165.171c2.458-2.458 5.12-4.506 7.987-6.246 15.36-9.114 35.533-7.066 48.742 6.246l286.822 286.822c15.667 15.667 15.667 41.062 0 56.73-15.667 15.77-41.062 15.77-56.73 0.102z" />
<glyph unicode="&#xe932;" glyph-name="time" data-tags="NaiveBlueSymbolsvg-32" d="M874.291 746.086c-96.768 96.666-225.382 149.914-362.189 149.914s-265.421-53.248-362.086-149.914c-96.768-96.768-150.016-225.28-150.016-362.086s53.248-265.318 149.914-362.189c96.666-96.563 225.382-149.811 362.086-149.811 136.806 0 265.421 53.248 362.291 150.016 199.578 199.578 199.578 524.39 0 724.070zM827.085 69.12c-84.173-84.070-196.096-130.458-315.085-130.458-118.886 0-230.81 46.387-314.88 130.355-84.070 84.070-130.355 195.994-130.355 314.982s46.285 230.81 130.458 314.88c84.070 84.070 195.891 130.355 314.88 130.355s230.81-46.285 314.982-130.355c173.568-173.67 173.568-456.090 0-629.76zM733.389 258.56l-177.050 102.298v279.142c0 23.552-19.149 42.701-42.701 42.701s-42.701-19.149-42.701-42.701v-298.701c0-15.77 19.661-29.082 32.461-36.454 3.584-5.325 13.21-10.138 19.149-13.517l176.026-106.701c20.378-11.776 42.496-4.71 54.272 15.565 11.981 20.48 1.024 46.592-19.456 58.368z" />
<glyph unicode="&#xe933;" glyph-name="fail-line" data-tags="NaiveBlueSymbolsvg-33" d="M874.291 746.086c-96.768 96.666-225.382 149.914-362.189 149.914s-265.421-53.248-362.086-149.914c-96.768-96.666-150.016-225.28-150.016-362.086s53.248-265.318 149.914-362.086c96.768-96.666 225.28-149.914 362.086-149.914s265.523 53.248 362.291 150.016c199.578 199.578 199.578 524.39 0 724.070zM827.085 69.12c-84.173-84.070-196.096-130.458-315.085-130.458-118.886 0-230.81 46.387-314.88 130.355-84.070 84.173-130.355 195.994-130.355 314.982s46.285 230.81 130.458 314.88c84.070 84.070 195.891 130.355 314.88 130.355s230.81-46.285 314.982-130.355c173.67-173.67 173.67-456.090 0-629.76zM722.944 594.944c-15.565 15.565-40.755 15.565-56.32 0l-154.624-154.624-154.624 154.624c-15.565 15.565-40.858 15.565-56.422 0-15.565-15.667-15.565-40.858 0-56.422l154.726-154.522-154.624-154.522c-15.565-15.565-15.565-40.858 0-56.422 7.885-7.782 18.022-11.674 28.16-11.674 10.24 0 20.378 3.891 28.16 11.674l154.624 154.624 154.522-154.624c7.782-7.782 18.022-11.674 28.16-11.674 10.24 0 20.48 3.891 28.16 11.674 15.667 15.667 15.667 40.858 0 56.422l-154.419 154.522 154.522 154.522c15.565 15.462 15.565 40.755 0 56.422z" />
<glyph unicode="&#xe934;" glyph-name="full" data-tags="NaiveBlueSymbolsvg-34" d="M306.688 602.624h37.888v29.696h-37.888v-29.696zM251.392 498.278c16.384 22.835 26.214 48.026 28.57 75.674h-28.57v-75.674zM84.992 896c-47.309 0-85.504-38.195-85.504-85.504v-938.496l1024 1022.976-938.496 1.024zM219.648 723.456h47.104v24.576h32.768v-24.576h50.176v24.576h31.744v-24.576h51.2v-30.72h-51.2v-19.456h-31.744v19.456h-50.176v-20.48h-32.768v20.48h-47.104v30.72zM156.16 747.008c21.197-17.101 38.912-33.792 53.248-50.79l-23.245-23.552c-12.595 16.077-30.413 33.382-53.248 51.814l23.245 22.528zM147.558 663.757c22.835-17.101 42.291-33.792 57.958-50.79l-23.245-23.245c-13.619 16.077-32.768 33.075-57.958 51.507l23.245 22.528zM160.87 437.555l-30.413 13.312c19.763 39.526 37.171 79.872 51.507 121.139l28.365-10.957c-14.643-43.622-31.027-84.89-49.459-123.494zM428.544 602.624v-131.277c0-22.221-9.728-33.587-30.515-33.587h-27.648l-7.885 28.365 26.010-1.331c7.475 0 11.366 4.506 11.366 13.005v96.051h-27.75l-1.024-15.462c8.499-11.264 17.408-23.757 26.317-37.376l-14.336-21.402c-6.144 14.336-11.571 25.907-16.077 35.123-6.144-27.341-18.125-52.531-35.84-75.674l-21.197 18.227c22.221 28.672 33.792 60.826 34.816 96.666h-38.195l-1.024-10.342c8.499-10.24 17.101-21.402 25.907-33.69l-14.643-21.402c-6.144 12.595-11.264 23.245-15.667 31.744-5.837-22.528-15.872-43.315-29.491-62.464l-20.275 17.408v-59.597h-28.672v166.912h57.344v29.696h-68.608v29.696h225.28v-29.696h-64.512v-29.696h56.32z" />
<glyph unicode="&#xe935;" glyph-name="fail-fill" data-tags="NaiveBlueSymbolsvg-35" d="M512 896c-282.829 0-512-229.274-512-512.102s229.171-512 512-512 512 229.171 512 512-229.171 512.102-512 512.102zM792.474 178.483c20.787-20.685 20.787-54.272 0-75.059-10.24-10.342-23.859-15.462-37.478-15.462-13.517 0-27.034 5.12-37.478 15.462l-205.517 205.619-205.619-205.619c-10.342-10.342-23.859-15.462-37.478-15.462-13.517 0-27.034 5.12-37.478 15.462-20.685 20.787-20.685 54.374 0 75.059l205.619 205.517-205.619 205.517c-20.685 20.685-20.685 54.272 0 75.059 20.582 20.685 54.272 20.685 74.957 0l205.619-205.619 205.517 205.619c20.787 20.685 54.272 20.685 74.957 0 20.787-20.787 20.787-54.374 0-75.059l-205.517-205.517 205.517-205.517z" />
<glyph unicode="&#xe936;" glyph-name="success-fill" data-tags="NaiveBlueSymbolsvg-36" d="M512 896c-282.726 0-512-229.171-512-512s229.274-512 512-512 512 229.274 512 512-229.171 512-512 512zM806.605 517.222l-332.186-332.186c-15.258-15.258-38.605-17.715-56.525-7.168-3.277 1.946-6.451 4.301-9.318 7.168l-191.181 191.181c-18.125 18.227-18.125 47.616 0 65.741 18.227 18.227 47.616 18.227 65.741 0l158.413-158.31 299.418 299.418c18.227 18.125 47.616 18.125 65.741 0 18.022-18.227 18.022-47.718-0.102-65.843z" />
<glyph unicode="&#xe937;" glyph-name="close" data-tags="NaiveBlueSymbolsvg-37" d="M664.371 384l328.090 328.090c42.086 41.984 42.086 110.285 0 152.371s-110.285 42.086-152.371 0l-328.090-328.090-328.090 328.090c-42.086 42.086-110.285 42.086-152.371 0s-42.086-110.387 0-152.371l328.090-328.090-328.090-328.090c-42.086-42.086-42.086-110.285 0-152.371 21.094-20.992 48.64-31.539 76.186-31.539s55.091 10.547 76.186 31.539l328.090 328.090 328.192-328.090c20.992-20.992 48.64-31.539 76.186-31.539s55.091 10.547 76.186 31.539c42.086 42.086 42.086 110.285 0 152.371l-328.192 328.090z" />
<glyph unicode="&#xe938;" glyph-name="vip" data-tags="NaiveBlueSymbolsvg-38" d="M7.578 520.192l450.458-577.946-180.531 577.946h-269.926zM360.55 520.192l163.123-591.872 140.288 591.872h-303.411zM751.002 520.192l-165.888-578.253 433.971 578.253h-268.083zM0 589.926h250.163l-125.030 220.979-125.133-220.979zM385.741 589.926h250.163l-125.030 220.979-125.133-220.979zM773.837 589.926h250.163l-125.133 220.979-125.030-220.979zM194.253 839.68l125.338-229.376 125.338 229.376h-250.675zM578.97 839.68l125.44-229.376 125.338 229.376h-250.778z" />
<glyph unicode="&#xe939;" glyph-name="vip2" data-tags="NaiveBlueSymbolsvg-39" d="M874.291 746.086c-96.768 96.666-225.382 149.914-362.189 149.914s-265.421-53.248-362.086-149.914c-96.768-96.768-150.016-225.382-150.016-362.086 0-136.806 53.248-265.318 149.914-362.189 96.666-96.563 225.28-149.811 362.086-149.811s265.421 53.248 362.291 149.914c199.578 199.68 199.578 524.493 0 724.173zM859.034 37.171c-92.672-92.672-215.962-143.77-347.034-143.77-130.97 0-254.259 51.098-346.829 143.565-92.672 92.672-143.667 215.962-143.667 347.034s51.098 254.259 143.77 346.931c92.57 92.57 215.757 143.565 346.829 143.565s254.259-50.995 346.931-143.565c191.283-191.283 191.283-502.579 0-693.76zM472.166 603.443h-148.992l74.445-136.294 74.547 136.294zM700.826 603.443h-149.094l74.547-136.294 74.547 136.294zM585.626 455.066l-74.342 131.277-74.342-131.277h148.685zM282.112 586.342l-74.342-131.277h148.685l-74.342 131.277zM212.275 413.594l267.571-343.45-107.213 343.45h-160.358zM667.546 455.066h148.685l-74.342 131.277-74.342-131.277zM555.418 70.042l257.843 343.552h-159.232l-98.611-343.552zM421.99 413.594l96.87-351.642 83.354 351.642h-180.224z" />
<glyph unicode="&#xe93a;" glyph-name="store-info2" data-tags="NaiveBlueSymbolsvg-40" d="M576.512 455.168c0 31.437-25.293 56.934-56.525 56.934-31.13 0-56.525-25.498-56.525-56.934s25.395-56.934 56.525-56.934c31.232 0 56.525 25.6 56.525 56.934zM497.562 455.168c0 12.493 10.035 22.63 22.426 22.63s22.426-10.138 22.426-22.63c0-12.493-10.035-22.63-22.426-22.63-12.288 0-22.426 10.138-22.426 22.63zM874.291 746.086c-96.768 96.666-225.382 149.914-362.189 149.914s-265.421-53.248-362.086-149.914c-96.768-96.768-150.016-225.382-150.016-362.086 0-136.806 53.248-265.318 149.914-362.189 96.666-96.563 225.28-149.811 362.086-149.811s265.421 53.248 362.291 149.914c199.578 199.68 199.578 524.493 0 724.173zM859.034 37.171c-92.672-92.672-215.962-143.77-347.034-143.77-130.97 0-254.259 51.098-346.829 143.565-92.672 92.672-143.667 215.962-143.667 347.034s51.098 254.259 143.77 346.931c92.57 92.57 215.757 143.565 346.829 143.565s254.259-50.995 346.931-143.565c191.283-191.283 191.283-502.579 0-693.76zM680.448 281.805c-14.746 6.042-29.901 8.909-45.158 11.674l-3.482 0.614c-17.408 3.277-32.666 5.53-46.694 6.758-0.205 0-0.307 0-0.512 0 6.246 8.192 12.493 16.282 18.534 24.474 10.957 14.848 22.323 30.822 33.792 47.616 10.445 15.258 18.739 32.051 24.474 49.664 0.614 1.843 1.229 3.686 1.741 5.53 12.902 46.694-6.246 95.13-52.429 132.915-24.678 20.173-57.754 31.846-90.829 31.846-15.36 0-33.792-3.379-50.688-9.318-27.546-9.626-53.146-29.491-71.987-55.91-8.499-11.878-14.131-24.371-17.306-32.768-14.029-36.045-6.861-78.131 20.48-121.651 16.179-25.702 33.69-50.176 52.326-73.421-6.554-0.614-13.005-1.229-19.558-2.048l-8.090-1.024c-17.715-2.253-36.045-4.608-54.272-10.24-21.709-6.758-36.045-16.384-42.394-28.774-5.53-10.65-3.686-20.787-2.15-25.805 7.987-25.498 41.882-33.382 64.307-38.707l5.939-1.434c9.011-2.253 18.944-4.198 30.31-5.734 9.933-1.434 20.48-2.355 33.485-2.97 19.046-0.922 37.888-1.434 56.013-1.434 25.293 0 50.278 0.922 74.138 2.765 13.005 1.024 24.576 2.355 35.533 3.994 17.203 2.56 33.485 6.656 48.538 11.981 10.957 3.891 31.334 11.162 38.81 29.286 3.277 7.885 3.277 16.077 0 23.859-4.915 11.674-16.486 21.606-32.87 28.262zM429.158 391.782c-14.848 23.654-29.901 58.573-17.408 90.829 3.584 9.216 8.192 18.125 13.21 25.19 14.848 20.787 34.509 36.147 55.398 43.52 13.517 4.71 27.955 7.373 39.629 7.373 25.293 0 50.586-8.806 69.222-24.166 20.685-16.998 53.658-52.122 41.165-97.075l-1.126-3.789c-4.915-14.746-11.674-28.672-20.275-41.165-11.366-16.589-22.118-31.846-33.075-46.49-6.246-8.397-12.493-16.794-18.944-25.19-6.349-8.294-13.414-17.203-22.323-28.058-1.126-1.434-8.499-9.83-15.155-17.51-33.28 35.021-63.693 74.24-90.317 116.531zM659.968 232.55c-12.698-4.506-26.317-7.885-40.55-10.035-9.83-1.434-20.378-2.662-32.358-3.584-38.4-2.97-80.589-3.379-124.621-1.229-11.878 0.614-20.89 1.434-29.491 2.56-10.035 1.434-18.227 2.97-25.805 4.915l-6.554 1.638c-23.142 5.427-35.533 10.342-36.864 14.643-0.205 0.717-0.102 1.536 0.307 2.253 1.741 3.482 8.909 7.373 19.763 10.65 15.258 4.71 31.846 6.758 47.923 8.704l7.168 0.922c13.722 1.741 27.75 2.765 41.267 3.789 9.114-10.138 18.432-20.070 27.955-29.696l5.325-5.325 7.475 0.41c6.144 0.307 9.933 0.819 37.581 34.714 7.373 0 14.95-0.307 22.733-1.024 13.107-1.229 27.034-3.277 42.496-6.246l4.096-0.819c13.107-2.458 25.6-4.813 36.454-9.216 5.837-2.355 11.469-6.144 12.493-8.909-1.536-3.686-11.878-7.373-16.794-9.114z" />
<glyph unicode="&#xe93b;" glyph-name="phone2" data-tags="NaiveBlueSymbolsvg-41" d="M513.024 635.187c-214.118 0-387.789-316.006-387.789-474.419 0-145.101 66.56-144.794 387.789-144.794s387.789-0.307 387.789 144.794c0 158.31-173.568 474.419-387.789 474.419zM514.15 235.725c-91.034 0-164.762 74.24-164.762 165.786s73.728 165.683 164.762 165.683c90.931 0 164.762-74.24 164.762-165.683 0-91.546-73.728-165.786-164.762-165.786zM512.205 752.128c-519.578-0.717-465.92-282.419-447.59-305.971 32.256-49.459 93.184-24.269 104.243-0.922 67.482 108.749 184.32 224.87 343.347 224.87s283.443-125.542 339.763-223.846c29.082-48.742 85.094-43.622 109.466 0 15.667 32.563 64.614 305.869-449.229 305.869z" />
<glyph unicode="&#xe93c;" glyph-name="email" data-tags="NaiveBlueSymbolsvg-42" d="M855.654 11.674h-687.309c-63.283 0-114.586 51.302-114.586 114.586v515.482c0 63.283 51.302 114.586 114.586 114.586h687.411c63.283 0 114.586-51.302 114.586-114.586v-515.482c-0.102-63.283-51.405-114.586-114.688-114.586zM254.669 641.741l216.781-216.781c22.426-22.426 58.573-22.426 80.998 0l216.781 216.781h-514.56zM855.654 566.272l-262.656-262.758c-44.749-44.749-117.248-44.749-161.997 0l-262.656 262.656v-382.669c0-31.642 25.6-57.242 57.242-57.242h572.826c31.642 0 57.242 25.6 57.242 57.242v382.771z" />
<glyph unicode="&#xe93d;" glyph-name="bus" data-tags="NaiveBlueSymbolsvg-43" d="M956.518 12.902l-24.678 713.728c0 63.898-55.296 115.61-123.494 115.61h-592.691c-68.198 0-123.494-51.712-123.494-115.61l-24.678-713.728h85.606c-0.614-3.277-1.024-6.554-1.024-10.035v-23.45c0-29.594 24.064-53.658 53.658-53.658h77.107c29.594 0 53.658 24.064 53.658 53.658v23.45c0 3.482-0.41 6.758-1.024 10.035h353.075c-0.614-3.277-1.024-6.554-1.024-10.035v-23.45c0-29.594 23.962-53.658 53.658-53.658h77.107c29.594 0 53.658 24.064 53.658 53.658v23.45c0 3.482-0.41 6.758-1.024 10.035h85.606zM219.853 124.723c-37.478 0-67.789 30.31-67.789 67.789s30.413 67.789 67.789 67.789c37.478 0 67.789-30.31 67.789-67.789 0-37.376-30.31-67.789-67.789-67.789zM171.827 370.893l9.216 292.966c0 64.614 23.552 90.214 83.046 90.214h495.514c59.494 0 83.046-25.498 83.046-90.214l9.523-292.966h-680.346zM804.147 124.723c-37.478 0-67.789 30.31-67.789 67.789s30.31 67.789 67.789 67.789c37.478 0 67.789-30.31 67.789-67.789 0-37.376-30.413-67.789-67.789-67.789z" />
<glyph unicode="&#xe93e;" glyph-name="stuff" data-tags="NaiveBlueSymbolsvg-44" d="M513.843 644.301c-201.933 0-365.67-163.738-365.67-365.67s163.738-365.67 365.67-365.67 365.67 163.738 365.67 365.67-163.738 365.67-365.67 365.67zM701.85 311.194l-72.090-70.246 16.998-99.226c5.734-33.28-13.312-47.923-43.827-31.846l-89.088 46.899-89.088-46.899c-29.901-15.77-49.664-2.15-43.827 31.846l16.998 99.226-72.090 70.246c-24.166 23.552-17.408 46.592 16.794 51.507l99.635 14.438 44.544 90.317c14.95 30.31 38.912 30.925 54.17 0l44.544-90.317 99.635-14.438c33.382-4.813 41.37-27.443 16.691-51.507zM876.442 813.978c3.072 4.301 5.325 9.216 5.325 14.95 0 14.438-11.674 26.112-26.112 26.112h-226.099c-12.186 0-22.016-8.499-24.883-19.866l-69.734-137.421c0 0 149.197-9.011 237.363-93.901l104.141 210.125zM488.96 697.754l-69.734 137.421c-2.867 11.264-12.698 19.866-24.883 19.866h-225.997c-14.438 0-26.112-11.674-26.112-26.112 0-5.734 2.15-10.65 5.222-14.95l104.141-210.022c88.166 84.787 237.363 93.798 237.363 93.798z" />
<glyph unicode="&#xe93f;" glyph-name="Makeup-vip" data-tags="NaiveBlueSymbolsvg-45" d="M576.102 809.984h-470.221c-30.208 0-54.682-26.010-54.682-57.754l121.549-501.146c9.728-32.87 24.474-57.549 54.682-57.549h225.69c30.208 0 46.694 27.546 54.682 57.446l123.085 501.248c0 31.846-24.474 57.754-54.784 57.754zM433.050 139.264h-183.398c-30.208 0-55.091-25.395-55.091-57.242v-66.048c0-31.846 24.883-57.958 55.091-57.958h183.398c30.208 0 54.374 26.112 54.374 57.958v66.048c0 31.846-24.166 57.242-54.374 57.242zM915.149 204.8h-309.862c-31.846 0-57.446-26.010-57.446-57.958v-130.867c0-31.846 25.498-57.958 57.446-57.958h309.862c31.846 0 57.651 26.112 57.651 57.958v130.867c0 31.949-25.805 57.958-57.651 57.958zM686.387 257.024h147.354c31.437 0 56.934 25.907 56.934 57.344s-25.498 57.344-56.934 57.344h-147.354c-31.437 0-56.934-25.907-56.934-57.344 0.102-31.437 25.6-57.344 56.934-57.344z" />
<glyph unicode="&#xe940;" glyph-name="clothes" data-tags="NaiveBlueSymbolsvg-46" d="M274.944 659.661l67.584-234.701h338.842l65.536 234.701v-157.491l158.31 78.746-78.438 236.339-157.389 78.746c0 0-29.491-146.33-157.491-146.33s-157.491 146.33-157.491 146.33l-157.491-78.746-79.155-236.339 157.184-78.746v157.491zM708.096 343.040h-395.981c-31.949-33.792-76.698-86.221-115.2-156.365-68.915-125.542-78.746-236.134-78.746-236.134s147.661-78.643 393.83-78.643 393.83 78.746 393.83 78.746-29.594 144.794-78.746 235.93c-30.31 56.115-82.944 117.555-118.989 156.467z" />
<glyph unicode="&#xe941;" glyph-name="private" data-tags="NaiveBlueSymbolsvg-47" d="M776.499 545.792h-48.435v69.939c0 115.2-96.563 208.589-216.064 208.589s-216.064-93.389-216.064-208.589v-69.939h-48.435c-53.146 0-95.949-41.062-95.949-92.262v-417.178c0-51.2 42.803-92.672 95.949-92.672h529.101c53.146 0 95.949 41.472 95.949 92.672v417.178c-0.102 51.2-42.906 92.262-96.051 92.262zM512 144.896c-57.344 0-103.834 44.749-103.834 100.045 0 55.194 46.49 100.045 103.834 100.045s103.834-44.749 103.834-100.045c0-55.296-46.49-100.045-103.834-100.045zM631.808 569.344c0-7.987-0.41-15.36-1.946-23.552h-235.622c-1.638 8.192-2.048 15.667-2.048 23.552v46.387c0 64 53.453 115.917 119.808 115.917s119.808-51.917 119.808-115.917v-46.387z" />
<glyph unicode="&#xe942;" glyph-name="background" data-tags="NaiveBlueSymbolsvg-48" d="M920.883 700.314c-37.376 107.622-129.946 103.322-179.712 101.376-53.453-3.482-423.117-13.312-455.373-14.131-3.891-0.102-7.885-0.41-11.776-0.614-10.752-0.512-25.498-2.048-38.093-5.632-30.413-6.963-57.958-19.149-79.258-35.738-31.334-24.678-53.453-62.464-60.416-103.834-7.475-43.11 1.946-86.733 26.010-119.398 20.070-27.136 50.381-47.616 83.354-56.013 11.264-2.97 22.323-4.403 33.178-4.403 25.498 0 49.050 7.987 68.71 23.347 47.309 37.069 54.067 107.315 15.36 159.846-13.312 18.125-38.502 21.811-56.013 7.987-17.613-13.824-21.197-39.834-7.68-57.958 10.035-13.722 12.8-33.792-0.102-44.032-11.059-8.704-26.112-6.554-34.099-4.608-15.258 3.891-29.798 13.619-38.81 25.805-10.752 14.643-14.643 34.099-11.059 54.886 3.686 21.197 14.746 40.243 30.208 52.326 33.178 26.112 83.456 29.901 122.982 21.709 47.104-9.83 73.114-49.664 82.432-95.437 11.469-57.242-18.534-101.888-49.869-145.715-117.248-147.968-124.826-330.752-59.802-477.491 5.837-13.21 21.299-19.456 35.635-15.77 0.102 0 0.102-0.102 0.102-0.307 0 0 492.134 96.256 516.198 100.045 61.747 9.83 31.642 55.501 31.642 55.501-169.165 317.338 97.997 400.691 36.25 578.253z" />
<glyph unicode="&#xe943;" glyph-name="register" data-tags="NaiveBlueSymbolsvg-49" d="M497.971 394.547c-23.859 5.12-48.742 7.782-74.138 7.782-195.277 0-353.792-158.618-354.202-354.202h373.35c-31.744 40.96-50.688 91.955-50.688 147.558 0 82.739 41.984 155.75 105.677 198.861zM423.936 407.552c114.074 0 206.541 92.467 206.541 206.541s-92.467 206.541-206.541 206.541-206.541-92.467-206.541-206.541c-0.102-114.074 92.467-206.541 206.541-206.541zM714.752 431.514c-132.301 0-239.616-107.315-239.616-239.616s107.315-239.616 239.616-239.616c132.301 0 239.616 107.213 239.616 239.616s-107.213 239.616-239.616 239.616zM841.83 148.48h-151.347c-10.24 0-18.739 8.397-18.739 18.739v152.371c0 19.046 15.258 34.406 34.304 34.406s34.304-15.36 34.304-34.406v-102.502h101.478c19.046 0 34.406-15.258 34.406-34.304 0.102-19.046-15.36-34.304-34.406-34.304z" />
<glyph unicode="&#xe944;" glyph-name="heart" data-tags="NaiveBlueSymbolsvg-50" d="M713.318 743.526c-59.29 0-115.61-22.528-158.515-63.386-4.096-3.891-25.805-25.805-42.598-42.803l-42.496 42.394c-43.008 41.165-99.533 63.898-159.027 63.898-126.874 0-230.093-103.219-230.093-230.093 0-74.138 37.069-129.741 68.71-164.045l284.877-287.744c22.528-22.528 47.616-37.171 77.824-37.171 30.31 0 55.398 14.643 78.029 37.274l284.774 287.642 1.946 2.253c34.304 42.803 66.765 83.251 66.765 161.792 0 126.771-103.322 229.99-230.195 229.99z" />
<glyph unicode="&#xe945;" glyph-name="notice" data-tags="NaiveBlueSymbolsvg-51" d="M426.906-96.768c-29.491 0-53.504 23.552-53.504 52.992s23.962 52.992 53.504 52.992h170.24c29.491 0 53.504-23.552 53.504-52.992s-24.013-52.992-53.504-52.992h-170.24zM512 70.605c-74.496 0-144.538 29.030-197.222 81.715s-81.664 122.726-81.664 197.222c0 74.496 29.030 144.538 81.664 197.222 52.685 52.634 122.726 81.664 197.222 81.664s144.538-29.030 197.222-81.664c52.685-52.685 81.715-122.726 81.715-197.222s-29.030-144.538-81.715-197.222c-52.685-52.736-122.726-81.715-197.222-81.715zM512 529.562c-99.277 0-180.019-80.742-180.019-180.019s80.742-180.019 180.019-180.019c99.277 0 180.019 80.742 180.019 180.019 0 99.226-80.742 180.019-180.019 180.019zM904.806 349.696c-29.491 0-53.504 24.269-53.504 54.016s24.013 54.016 53.504 54.016h65.434c29.491 0 53.504-24.269 53.504-54.016s-24.013-54.016-53.504-54.016h-65.434zM53.709 349.696c-29.491 0-53.504 24.269-53.504 54.016 0.051 29.747 24.013 54.016 53.504 54.016h65.485c29.491 0 53.504-24.269 53.504-54.016s-24.013-54.016-53.504-54.016h-65.485zM799.795 573.747c-14.285 0-27.75 5.581-37.837 15.667s-15.667 23.552-15.667 37.837c0 14.285 5.581 27.699 15.667 37.837l46.285 46.285c10.086 10.086 23.552 15.667 37.837 15.667s27.699-5.581 37.837-15.667c20.838-20.89 20.838-54.835 0-75.674l-46.285-46.285c-10.086-10.086-23.552-15.667-37.837-15.667zM224.154 573.747c-14.285 0-27.699 5.581-37.837 15.667l-46.285 46.285c-10.086 10.086-15.667 23.552-15.667 37.837s5.581 27.75 15.667 37.837c10.086 10.086 23.501 15.667 37.837 15.667 14.285 0 27.75-5.581 37.837-15.667l46.285-46.285c20.838-20.838 20.838-54.784 0-75.674-10.086-10.086-23.552-15.667-37.837-15.667zM512 695.091c-29.44 0-53.76 24.013-53.76 53.504v65.485c0 29.491 24.32 53.504 53.76 53.504s53.76-24.013 53.76-53.504v-65.485c0-29.491-24.32-53.504-53.76-53.504z" />
<glyph unicode="&#xe946;" glyph-name="checked" data-tags="NaiveBlueSymbolsvg-52" d="M930.304 895.488h-837.427c-53.453 0-93.389-39.322-93.389-92.57v-837.427c0-53.555 40.141-94.106 93.389-94.106h837.427c53.555 0 93.184 40.755 93.184 94.106v837.427c0 53.555-39.936 92.57-93.184 92.57zM809.882 530.534l-289.894-381.44c-8.602-11.366-21.709-18.432-35.84-19.661-14.336-1.126-28.16 3.891-38.502 13.619l-208.384 198.144c-9.626 9.114-15.155 21.504-15.36 34.816-0.307 13.21 4.608 25.805 13.824 35.533 9.523 9.83 22.323 15.258 36.147 15.258 12.902 0 25.088-4.915 34.509-13.722l167.834-159.744 256.102 336.998c15.974 21.197 48.538 25.702 69.939 9.728 21.811-16.486 26.214-47.616 9.626-69.53z" />
<glyph unicode="&#xe947;" glyph-name="unchecked" data-tags="NaiveBlueSymbolsvg-53" d="M1024 787.456c0 59.699-48.333 108.032-108.032 108.032h-807.936c-59.699 0-108.032-48.333-108.032-108.032v-807.936c0-59.699 48.333-108.032 108.032-108.032h807.936c59.699 0 108.032 48.333 108.032 108.032v807.936zM994.304-20.582c0-43.213-35.021-78.234-78.234-78.234h-808.141c-43.213 0-78.234 35.021-78.234 78.234v808.141c0 43.213 35.021 78.234 78.234 78.234h808.038c43.213 0 78.234-35.021 78.234-78.234v-808.141zM791.552 592.589c-20.685 15.462-52.019 11.059-67.482-9.421l-247.296-325.427-162.099 154.317c-9.011 8.602-20.787 13.312-33.28 13.312-13.312 0-25.702-5.325-34.918-14.746-9.011-9.318-13.722-21.504-13.414-34.304s5.53-24.781 14.848-33.587l201.216-191.386c9.933-9.421 23.347-14.234 37.171-13.21 13.619 1.229 26.317 8.090 34.611 19.046l279.962 368.333c16.179 21.094 11.878 51.2-9.318 67.072z" />
<glyph unicode="&#xe948;" glyph-name="warning" data-tags="NaiveBlueSymbolsvg-54" d="M544.461 275.456c0 0.102 0.102 0.41 0.205 0.819 3.789 19.558 0.102 0.717-0.205-0.819zM512 896c-282.829 0-512-229.274-512-512s229.171-512 512-512c282.726 0 512 229.274 512 512s-229.274 512-512 512zM510.464 19.046c-40.858 0-73.933 33.075-73.933 73.933s33.075 73.933 73.933 73.933 73.933-33.075 73.933-73.933c0-40.858-33.075-73.933-73.933-73.933zM607.334 568.832c0-0.102 0-0.307-0.102-0.512l-0.102-0.205-0.102-0.512v-0.205l-0.102-0.41-0.102-0.307c0 0-58.573-272.896-62.362-290.406-0.102-0.307-0.102-0.614-0.205-0.922-4.301-21.914-15.258-33.997-33.997-33.997s-28.57 13.926-34.406 36.454c-5.837 22.528-60.826 282.419-60.826 282.624 0 0 0 0.102-0.102 0.205l-0.102 0.205c0 0.205-0.102 0.307-0.102 0.512l-0.205 0.819c0 0.102-0.102 0.41-0.102 0.41l-0.102 0.41-0.102 0.205-0.102 0.512c0 0-0.102 0.205-0.102 0.307l-0.102 0.41c0 0 0 0.307-0.102 0.512 0 0 0 0.102 0 0.205v0.205c0 0-0.102 0.307-0.102 0.512l-0.205 0.819-0.102 0.307-0.102 0.41-0.102 0.205-0.102 0.512-0.102 0.41c0 0-0.102 0.307-0.102 0.41-1.331 6.451-2.048 13.21-2.048 20.070 0 54.682 44.237 98.918 98.918 98.918s98.918-44.237 98.918-98.918c0.717-6.963 0-13.722-1.331-20.173z" />
<glyph unicode="&#xe949;" glyph-name="wechat-pay" data-tags="NaiveBlueSymbolsvg-55" d="M970.445 607.13c-159.949-95.846-532.070-318.771-580.096-345.293-61.338-33.997-70.349 19.149-70.349 19.149l-76.8 178.483c-29.594 84.89 25.6 38.298 25.6 38.298s47.309-35.635 83.251-57.344c35.84-21.709 76.8-6.349 76.8-6.349l502.17 230.912c-92.774 114.688-245.76 189.85-419.021 189.85-282.726 0-512-199.885-512-446.362 0-141.824 75.878-267.981 194.15-349.798l-21.299-122.061c0 0-10.445-35.635 25.6-19.046 24.576 11.264 87.142 51.61 124.314 76.186 58.573-20.378 122.368-31.642 189.235-31.642 282.726 0 512 199.782 512 446.362 0 71.475-19.354 138.854-53.555 198.656z" />
<glyph unicode="&#xe94a;" glyph-name="order" data-tags="NaiveBlueSymbolsvg-56" d="M996.557 514.867c-23.45 86.63-66.355 161.894-129.024 225.792-62.566 63.898-137.626 107.622-225.382 131.277-87.654 23.552-174.49 23.552-260.506 0s-160.666-66.97-224.154-129.946c-63.386-63.078-106.803-138.752-130.253-227.123-23.347-88.371-23.347-176.026 0-263.066 23.45-87.040 66.458-162.304 129.024-225.792s137.728-107.213 225.382-131.277c70.656-17.203 139.059-20.787 205.005-10.957s127.59 32.358 185.958 67.584v1.229c6.144 4.301 12.288 10.035 16.486 17.408 4.301 7.27 6.349 15.258 6.349 23.757 0 12.902-4.71 23.962-14.131 33.485-9.421 9.421-20.48 14.131-33.178 14.131-10.24 0-19.558-2.97-28.058-9.011-98.816-59.187-203.059-73.728-312.934-43.725-71.578 18.842-132.608 54.067-183.296 105.472s-85.606 112.333-104.755 182.682c-19.149 70.349-19.149 141.312 0 212.992 19.149 71.578 54.272 132.915 105.37 183.91 51.098 51.098 111.514 86.221 181.35 105.472s140.083 19.046 210.739-0.614c53.658-14.643 101.99-38.605 144.896-72.090 43.008-33.485 77.005-72.909 102.093-118.374s41.984-95.027 50.483-148.582c8.499-53.658 5.12-107.418-10.24-161.485-9.421-36.864-24.269-72.090-44.646-105.574-5.12-8.602-7.68-17.613-7.68-27.034 0-12.8 4.71-23.962 14.029-33.485 9.421-9.421 20.787-14.131 34.406-14.131 17.92 0 31.539 8.090 40.858 24.474 11.981 20.582 22.528 41.574 31.949 63.078s17.408 43.725 24.269 66.97c23.245 88.474 23.040 175.923-0.41 262.554zM434.688 662.63c-27.238 0-49.152-22.221-49.152-49.664v-295.936c0-27.443 22.118-49.152 49.357-49.152h293.786c27.238 0 49.357 22.221 49.357 49.664s-22.118 49.664-49.357 49.664h-244.838v245.76c0 27.341-21.914 49.664-49.152 49.664z" />
<glyph unicode="&#xe94b;" glyph-name="profile" data-tags="NaiveBlueSymbolsvg-57" d="M680.858 200.806c19.149-8.090 39.219-3.379 53.555 11.469 9.933 10.342 14.746 22.221 14.746 36.454 0 9.011-2.048 16.896-6.042 24.166-4.096 7.373-9.523 13.107-16.589 17.613-0.512 0.307-30.003 20.48-47.616 28.57l-16.691 7.68 13.824 12.083c17.203 15.053 32.768 31.744 46.285 49.459 13.414 17.715 25.19 36.966 34.918 57.446 9.728 20.275 17.203 42.189 22.528 65.126 5.222 22.938 7.885 46.387 7.885 69.734 0 57.242-14.029 110.694-41.677 158.822-27.648 48.23-65.946 86.733-113.766 114.586s-100.864 41.984-157.696 41.984c-85.914 0-160.154-31.13-220.672-92.467s-91.238-136.294-91.238-222.925c0-18.739 1.741-37.786 5.12-56.73 3.379-18.842 8.192-37.274 14.131-54.682 5.939-17.203 13.722-33.894 22.938-49.664 9.421-15.872 19.866-31.13 31.13-45.056 11.162-13.824 23.859-26.419 37.888-37.581l14.746-11.674-16.896-8.294c-73.83-36.659-134.451-88.371-179.814-153.907-45.261-65.331-71.27-143.155-77.312-231.424 0.307-12.186 5.12-23.040 14.541-32.256 19.866-19.354 52.838-19.251 72.499-0.614 9.728 9.114 14.336 20.89 14.336 34.202h0.307l-0.307 0.205c9.523 95.949 48.845 175.616 116.634 236.749 67.686 60.928 149.197 91.955 242.074 91.955 34.406 0 67.891-4.301 99.43-12.698 28.672-7.68 53.76-16.589 83.251-35.021 6.656-4.096 18.842-11.264 23.552-13.312zM474.726 367.411c-15.565 0-31.539 1.946-47.616 5.632-15.974 3.686-31.232 9.114-45.261 16.179-13.926 7.066-27.034 15.36-38.912 24.883-11.981 9.626-23.040 20.685-32.87 33.075-9.83 12.288-18.33 25.702-25.293 39.834s-12.493 29.286-16.077 44.954c-3.789 15.77-5.632 32.051-5.632 48.64 0 58.778 20.992 109.568 62.464 150.938s91.75 62.259 149.709 62.259 108.134-20.992 149.197-62.362c41.062-41.37 61.85-92.16 61.85-150.835s-20.787-109.466-61.85-150.835c-40.96-41.37-91.443-62.362-149.709-62.362zM887.194-10.342c-14.029 0-25.6-4.813-35.43-14.746s-14.643-21.606-14.643-35.738c0-14.131 4.813-25.702 14.643-35.738 15.36-15.462 37.786-19.046 57.446-9.933 20.070 9.114 29.286 23.654 29.286 45.67 0 14.131-4.915 25.702-15.053 35.635-10.342 9.933-22.118 14.848-36.25 14.848zM1009.254 258.15c-0.307 2.97-0.922 5.939-1.741 8.602-0.819 2.56-2.048 5.12-3.482 7.373-1.536 2.458-3.072 4.506-4.813 6.246l-18.637 18.842c-7.168 7.168-15.667 10.65-26.112 10.65-10.65 0-19.661-3.584-27.648-10.957l-276.582-279.962c-14.131-13.517-31.949-38.605-53.146-74.752-26.112-44.646-21.504-54.579-21.504-54.579l17.306-17.408 2.253-0.205c5.427 0 19.456 2.867 51.712 22.016 35.84 21.299 60.723 39.219 73.933 53.248l278.323 279.245c1.536 1.536 3.072 3.584 4.403 6.144 1.638 2.867 2.867 5.734 3.789 8.602 0.922 2.765 1.536 5.427 1.741 8.090 0.512 2.765 0.512 5.632 0.205 8.806z" />
<glyph unicode="&#xe94c;" glyph-name="orderlist" data-tags="NaiveBlueSymbolsvg-58" d="M418.816 735.744h185.446c17.51 0 32.563 6.349 44.749 18.637s18.432 27.546 18.432 45.158c0 17.613-6.144 32.563-18.432 44.851-12.186 12.288-27.238 18.33-44.749 18.33h-185.446c-17.51 0-32.563-5.939-44.749-18.33-12.288-12.288-18.432-27.341-18.432-44.954s6.144-32.768 18.432-45.158c12.186-12.288 27.238-18.534 44.749-18.534zM266.035 558.080c0-11.469 4.403-21.709 12.595-30.003s18.534-12.493 29.798-12.493h407.142c12.083 0 22.63 4.403 30.515 12.8 7.68 8.192 11.776 18.432 11.776 29.696 0 6.042-1.126 11.776-3.277 16.998-2.15 5.325-5.12 9.83-8.806 13.517-3.584 3.686-8.192 6.554-13.414 8.704-5.325 2.253-10.957 3.277-16.896 3.277h-407.040c-11.264 0-21.606-4.301-29.798-12.493-8.192-8.294-12.595-18.637-12.595-30.003zM752.64 408.166c-3.584 6.656-8.704 12.288-15.36 16.282s-14.029 6.144-21.811 6.144h-407.040c-11.366 0-21.606-4.506-29.798-12.698-8.192-8.294-12.595-18.739-12.595-30.106 0-7.885 2.048-15.36 5.939-22.016 3.994-6.656 9.421-12.083 16.077-15.667 6.451-3.482 13.312-5.427 20.275-5.427h407.142c11.981 0 22.426 4.403 30.31 12.288 7.885 7.987 12.083 18.637 12.083 30.618 0 7.066-1.741 14.029-5.222 20.582zM958.771 699.29c0 37.581-13.414 70.042-39.731 96.256s-58.266 39.526-94.925 39.526h-43.11c-11.366 0-21.299-4.096-29.594-11.981-8.397-7.987-12.8-18.432-12.8-30.31 0-11.674 4.403-22.016 12.595-30.31 8.192-8.192 18.534-12.39 29.798-12.39h43.11c4.198 0 8.499-0.819 12.698-2.048 4.403-1.229 8.499-3.072 12.39-5.222 3.789-2.15 7.168-4.813 10.24-7.782 3.072-3.174 5.837-6.656 7.987-10.24 2.048-3.482 3.686-7.373 4.915-11.674 1.126-4.198 1.741-8.806 1.741-13.722l0.922-658.022c0-14.029-4.915-25.805-15.053-36.045-4.813-4.915-10.342-8.602-16.282-11.162-5.734-2.56-12.288-3.789-19.456-3.789h-623.411c-14.541 0-26.214 4.813-36.147 15.053s-14.746 22.016-14.746 36.045l-0.819 657.92c0 5.837 0.819 11.264 2.458 16.179s3.994 9.421 6.963 13.414c3.174 4.198 6.963 7.885 11.059 11.162 3.891 2.97 8.397 5.53 13.517 7.168 5.325 1.741 10.547 2.765 15.872 2.765h44.032c11.366 0 21.606 4.096 29.798 12.39s12.595 18.534 12.595 30.003c0 7.885-2.048 15.258-5.939 21.914-3.891 6.554-9.011 11.776-15.258 15.36-6.349 3.584-13.414 5.427-21.094 5.427h-44.032c-36.659 0-68.608-13.312-94.925-39.526s-39.731-58.573-39.731-96.256l0.922-658.022c0-36.966 13.107-69.018 39.219-95.846 25.907-26.112 57.958-40.141 95.437-40.141h625.357c37.171 0 69.222 14.029 95.13 40.141 12.698 12.8 22.528 27.443 29.184 43.93s10.035 33.894 10.035 52.019l-0.922 657.818zM715.571 258.56h-407.142c-11.366 0-21.606-4.198-29.798-12.39-8.192-8.294-12.595-18.534-12.595-30.003 0-8.090 2.15-15.36 6.246-21.811 3.789-5.939 8.909-10.957 15.258-14.746 6.656-3.994 13.619-6.042 20.89-6.042h407.142c12.083 0 22.63 4.506 30.515 12.902 7.885 8.294 11.776 18.432 11.776 29.798 0 11.264-4.096 21.402-11.776 29.594-7.885 8.397-18.432 12.698-30.515 12.698z" />
<glyph unicode="&#xe94d;" glyph-name="store-info1" data-tags="NaiveBlueSymbolsvg-59" d="M659.866 552.55c0 78.234-66.355 141.926-147.968 141.926s-148.070-63.59-148.070-141.824c0-78.234 66.355-141.926 148.070-141.926 81.613 0 147.968 63.59 147.968 141.824zM453.12 552.55c0 31.027 26.419 56.32 58.88 56.32 32.358 0 58.778-25.293 58.778-56.32 0-31.13-26.419-56.422-58.778-56.422-32.563 0-58.88 25.293-58.88 56.422zM1017.651 50.893c-12.493 28.467-43.008 53.248-85.914 69.837-38.605 14.95-78.438 22.118-118.17 29.184l-9.216 1.536c-45.568 8.192-85.504 13.824-122.163 16.998-0.41 0-0.819 0-1.229 0.102 16.486 20.275 32.666 40.653 48.435 61.030 28.774 36.864 58.573 76.8 88.576 118.579 27.443 38.093 49.050 79.77 64.205 123.699 1.638 4.608 3.174 9.216 4.506 13.722 33.792 116.224-16.384 236.851-137.421 331.059-64.717 50.483-151.347 79.36-237.773 79.36-40.141 0-88.576-8.397-132.813-23.245-72.090-23.962-139.059-73.421-188.416-139.366-22.221-29.696-36.864-60.723-45.363-81.613-36.659-89.907-18.022-194.56 53.658-302.899 42.291-64 88.166-124.928 136.909-182.886-17.101-1.434-34.099-3.072-51.2-5.12l-21.197-2.56c-46.49-5.632-94.515-11.366-142.234-25.395-56.832-16.691-94.208-40.755-111.104-71.578-14.541-26.624-9.728-51.712-5.632-64.307 20.787-63.386 109.568-83.251 168.243-96.358l15.462-3.482c23.654-5.734 49.664-10.342 79.462-14.336 25.907-3.482 53.658-5.837 87.552-7.475 49.766-2.355 99.226-3.482 146.739-3.482 66.355 0 131.686 2.253 194.15 6.861 33.997 2.56 64.41 5.837 92.979 9.933 45.056 6.451 87.757 16.486 127.078 29.798 28.672 9.728 82.125 27.75 101.581 72.806 8.806 19.763 8.806 40.346 0.307 59.597zM273.818 394.752c-38.912 58.88-78.438 145.92-45.67 226.202 9.318 22.938 21.606 45.261 34.611 62.874 38.912 51.712 90.419 90.112 145.101 108.442 35.328 11.674 73.114 18.33 103.731 18.33 66.355 0 132.506-21.914 181.35-60.109 54.272-42.189 140.39-129.741 107.725-241.766l-2.97-9.421c-12.698-36.864-30.618-71.27-53.146-102.502-29.696-41.37-57.958-79.258-86.63-115.917-16.282-20.992-32.768-41.882-49.766-62.669-16.691-20.582-35.226-42.803-58.368-69.939-2.97-3.482-22.118-24.576-39.629-43.52-86.938 86.835-166.4 184.422-236.339 289.997zM878.182-2.048c-33.178-11.162-68.813-19.558-106.189-24.986-25.702-3.686-53.453-6.656-84.787-9.011-100.557-7.373-211.149-8.397-326.349-3.072-31.027 1.434-54.784 3.482-77.312 6.451-26.317 3.584-47.821 7.475-67.584 12.186l-17.101 3.994c-60.518 13.517-92.979 25.805-96.563 36.557-0.614 1.946-0.41 3.686 0.717 5.632 4.608 8.602 23.45 18.33 51.61 26.624 40.038 11.776 83.456 16.794 125.44 21.709l18.739 2.253c35.84 4.301 72.499 6.861 108.032 9.421 23.859-25.395 48.23-50.074 73.318-73.83l14.029-13.312 19.661 1.024c16.179 0.819 26.010 2.15 98.406 86.426 19.251-0.102 39.219-0.922 59.597-2.662 34.304-3.072 70.758-8.090 111.411-15.462l10.854-1.946c34.406-6.144 66.97-11.981 95.437-23.040 15.36-5.837 30.003-15.462 32.768-22.221-3.994-9.114-31.13-18.33-44.134-22.733z" />
<glyph unicode="&#xe94e;" glyph-name="no-order" data-tags="NaiveBlueSymbolsvg-60" d="M932.045 75.981c0 0-84.275 9.318-156.774-18.739s-114.176-69.12-132.096-100.25c-17.306-30.413 26.419-65.229 51.814-29.696 0 0 69.53 104.96 232.96 88.576 0 0 29.389 1.638 29.798 28.058 0.512 30.72-25.702 32.051-25.702 32.051zM299.52-24.986c-35.635 32.358-112.538 87.962-235.11 92.262 0 0-43.827 6.758-49.562-17.203-5.734-24.064-0.307-34.202 22.733-41.165 24.371-7.373 74.854 2.253 123.597-20.378 78.541-36.352 99.226-58.47 99.226-58.47l19.763-21.709c0 0 13.722-12.698 34.816-2.048s14.029 25.395 14.029 25.395 6.246 10.854-29.491 43.315zM1011.302 695.398c0 0-158.003 104.96-363.827 171.008-54.477 17.51-120.73 29.594-188.006 29.594-122.982 0-249.139-40.141-312.32-160.666-33.69-64.205-37.069-133.734-19.866-201.114 0 0 0 0 0 0s-24.883-62.157-2.458-172.442c22.528-110.387 97.382-214.323 107.622-231.424 35.43-58.778 89.088-112.947 118.067-139.674 47.411-43.827 128.717-115.917 126.669-111.002 0 0 21.094-19.046 43.11 2.662 0 0 21.094 23.757-7.066 44.851-28.058 21.094-56.832 46.797-86.528 73.523-29.696 26.624-125.645 129.638-149.709 170.189-24.064 40.448-44.134 63.898-71.885 132.403-27.75 68.403-28.262 116.326-28.262 116.429 38.707-63.488 92.979-120.422 152.678-163.226 165.376-118.682 367.104-180.531 367.104-180.531 42.496 130.867-16.384 242.381-16.384 242.381 35.021-3.584 69.12-5.12 101.069-5.12 112.538 0 198.144 17.51 198.144 17.51s-53.043 111.616-160.666 224.256c0.102 0 95.846 44.749 192.512 140.39zM882.381 378.266c-28.877-2.662-63.488-4.813-101.069-4.813-32.768 0-64.717 1.638-94.822 4.71l-112.128 11.674 52.634-99.635c0.102-0.205 11.162-22.016 18.432-56.525 4.506-21.299 6.656-42.701 6.349-63.693-0.102-4.71-0.307-9.523-0.614-14.234-69.939 26.726-185.958 77.312-286.72 149.504-70.861 50.79-129.638 121.242-161.382 193.331-16.384 37.171-25.088 73.728-26.010 108.442-0.922 35.942 6.963 69.734 23.040 100.454 11.878 22.733 27.238 42.803 45.568 59.494 17.203 15.667 37.274 28.877 60.109 39.219 21.811 10.035 46.285 17.51 72.909 22.528 25.19 4.71 52.326 7.066 80.691 7.066 55.91 0 116.122-9.421 169.574-26.522 101.478-32.666 190.669-75.366 247.808-105.472 11.981-6.349 23.040-12.288 33.178-17.92-23.552-18.842-44.954-33.69-61.542-44.442-31.846-20.685-53.862-31.232-55.194-31.846l-76.083-35.226 58.163-60.826c47.923-50.074 83.968-99.942 107.11-135.27z" />
</font>
</defs>
</svg>
